<?xml version="1.0" encoding="utf-8"?>
<!DOCTYPE svg PUBLIC "-//W3C//DTD SVG 1.1//EN" "http://www.w3.org/Graphics/SVG/1.1/DTD/svg11.dtd">
<svg version="1.1" xmlns="http://www.w3.org/2000/svg" xmlns:xlink="http://www.w3.org/1999/xlink" x="0px"
	 y="0px" width="480px" height="480px" viewBox="10 10 480 480" style="enable-background:new 10 10 480 480;" xml:space="preserve"
	>
<g>
	<g>
		<path style="fill:#00B3EF;" d="M381.737,398.731c-2.86,2.329-5.781,4.584-8.759,6.767
			c-33.826,26.809-76.563,42.841-122.978,42.841c-17.112,0-33.724-2.179-49.575-6.273c-17.279-3.761-33.787-9.604-49.25-17.256
			c30.045,21.133,65.754,34.721,104.36,38.005c46.476-5.157,88.405-25.6,120.624-56.189
			C378.072,404.035,379.936,401.406,381.737,398.731z"/>
		<path style="fill:#00B3EF;" d="M233.381,464.096c-40.222-7.575-76.581-26.226-105.763-52.669
			c-44.38-24.331-79.163-64.06-97.124-111.948c9.402,41.736,30.434,79.114,59.503,108.544
			c37.349,34.776,87.393,56.087,142.33,56.087C232.679,464.109,233.029,464.098,233.381,464.096z"/>
		<path style="fill:#00B3EF;" d="M177.825,59.11c-17.741,8.958-34.068,20.315-48.557,33.647
			c20.796-16.005,44.836-27.992,70.957-34.768c-0.053,0-0.106-0.002-0.159-0.002C192.559,57.987,185.139,58.368,177.825,59.11z"/>
		<path style="fill:#00B3EF;" d="M89.464,378.988c-32.857-35.016-54.145-81.002-57.702-131.806
			c-1.975,9.664-3.295,19.562-3.946,29.639C38.058,316.736,59.875,352.061,89.464,378.988z"/>
		<path style="fill:#00B3EF;" d="M273.797,467.869c-6.133,0-12.203-0.268-18.208-0.767c-7.643,0.833-15.402,1.273-23.262,1.273
			c-27.54,0-53.878-5.247-78.067-14.792C183.327,467.308,215.78,475,249.999,475c19.736,0,38.882-2.564,57.134-7.359
			c1.886-1.063,3.759-2.147,5.61-3.263C300.103,466.668,287.088,467.869,273.797,467.869z"/>
		<path style="fill:#00B3EF;" d="M438.348,187.833c6.474,19.563,9.99,40.461,9.99,62.167c0,24.928-4.635,48.79-13.068,70.787
			c-1.459,4.493-3.056,8.923-4.8,13.281c16.82-30.253,26.419-65.049,26.419-102.05c0-0.061-0.002-0.121-0.002-0.181
			c-4.566-16.221-10.962-31.681-18.945-46.149C438.076,186.402,438.22,187.115,438.348,187.833z"/>
		<path style="fill:#00B3EF;" d="M332.345,44.459c-18.613-5.31-38.254-8.156-58.547-8.156c-16.69,0-32.937,1.927-48.535,5.564
			c2.347-0.077,4.699-0.129,7.064-0.129c52.079,0,99.85,18.77,136.929,49.886c24.06,18.162,43.867,41.668,57.641,68.741
			c0.078,0.108,0.158,0.216,0.237,0.324C410.982,111.246,376.783,69.892,332.345,44.459z"/>
		<path style="fill:#00B3EF;" d="M465.035,291.062c0-15.026-1.524-29.703-4.422-43.885c-3.086,44.077-19.508,84.536-45.263,117.344
			c-9.947,16.568-22.07,31.687-35.985,44.944c-12.736,17.173-27.877,32.457-44.921,45.356c11.101-3.292,21.833-7.451,32.105-12.422
			c44.396-26.994,78.747-68.92,96.058-118.748C464.201,313.017,465.035,302.135,465.035,291.062z"/>
		<path style="fill:#00B3EF;" d="M122.725,72.115c-7.589,2.877-14.984,6.15-22.145,9.82c-7.664,6.821-14.86,14.153-21.533,21.949
			c-3.409,4.437-6.649,9.009-9.704,13.714C84.485,99.671,102.519,84.267,122.725,72.115z"/>
		<path style="fill:#00B3EF;" d="M360.651,425.348c-24.244,18.314-52.504,31.572-83.203,38.209c15.585-0.263,30.77-2.196,45.38-5.64
			C336.648,448.519,349.334,437.576,360.651,425.348z"/>
		<path style="fill:#00B3EF;" d="M475,250c0-64.869-27.604-123.402-71.67-164.503c35.684,38.246,57.614,89.477,57.815,145.741
			c5.307,19.047,8.156,39.108,8.156,59.824c0,3.493-0.091,6.964-0.251,10.418C472.936,284.942,475,267.708,475,250z"/>
		<path style="fill:#00B3EF;" d="M25.237,260.074c1.372-9.828,3.38-19.453,5.993-28.831c0.066-18.643,2.52-36.733,7.067-53.983
			c-3.063,7.613-5.687,15.446-7.848,23.469C26.891,216.592,25,233.079,25,250C25,253.377,25.089,256.733,25.237,260.074z"/>
		<path style="fill:#00B3EF;" d="M113.677,71.129c9.843-4.149,20.042-7.614,30.539-10.33c18.482-8.416,38.369-14.26,59.201-17.095
			c22.089-7.558,45.763-11.668,70.381-11.668c14.57,0,28.807,1.449,42.584,4.19c-2.716-1.256-5.464-2.454-8.241-3.595
			C289.586,27.664,270.099,25,249.999,25C198.791,25,151.533,42.208,113.677,71.129z"/>
		<path style="fill:#00B3EF;" d="M200.066,53.721c5.787,0,11.523,0.222,17.201,0.657c10.652-1.777,21.584-2.716,32.732-2.716
			c20.779,0,40.819,3.219,59.656,9.173c-23.931-9.562-50.025-14.831-77.328-14.831c-9.457,0-18.766,0.643-27.894,1.866
			c-5.349,1.841-10.599,3.894-15.747,6.139C192.455,53.818,196.25,53.721,200.066,53.721z"/>
		<path style="fill:#00B3EF;" d="M324.596,461.877c-0.428,0.289-0.865,0.567-1.296,0.854c1.593-0.551,3.18-1.115,4.756-1.7
			C326.908,461.326,325.751,461.6,324.596,461.877z"/>
		<path style="fill:#00B3EF;" d="M53.4,147.045c-9.451,21.358-15.464,44.564-17.308,68.919c11.801-32.915,31.122-62.279,55.893-86
			c18.861-28.483,44.221-52.301,73.96-69.311c-6.874,1.081-13.644,2.476-20.291,4.183C107.289,82.386,75.115,111.207,53.4,147.045z"
			/>
		<path style="fill:#00B3EF;" d="M176.604,54.953c2.084-1.043,4.186-2.056,6.307-3.033c-4.841,1.178-9.617,2.523-14.32,4.032
			C171.248,55.575,173.917,55.235,176.604,54.953z"/>
		<path style="fill:#00B3EF;" d="M107.125,390.168c-5.838-6.928-11.255-14.221-16.207-21.844
			C66.27,335.269,51.662,294.309,51.662,250c0-36.063,9.679-69.906,26.57-99.076c-19.523,23.359-34.277,50.832-42.744,80.916
			c0,0.059-0.002,0.118-0.002,0.177C35.486,294.955,63.232,351.526,107.125,390.168z"/>
		<path style="fill:#00B3EF;" d="M358.523,53.839c-3.033-1.316-6.103-2.561-9.207-3.738c41.705,28.674,72.706,71.84,85.654,122.181
			c8.612,13.638,15.786,28.267,21.311,43.678C451.117,147.749,413.326,88.514,358.523,53.839z"/>
	</g>
	<g>
		<g>
			<path style="fill:#00B3EF;" d="M118.655,273.186h-6.051c-0.672,0-1.222-0.55-1.222-1.223v-43.03c0-0.672,0.55-1.161,1.222-1.161
				h6.051c0.673,0,1.223,0.489,1.223,1.161v43.03C119.878,272.636,119.328,273.186,118.655,273.186z"/>
			<path style="fill:#00B3EF;" d="M171.097,273.186h-5.746c-0.673,0-1.161-0.611-1.161-1.284V249.96
				c0-4.157-1.467-4.951-4.278-4.951h-1.467c-3.545,0-4.034,1.956-4.034,4.951v21.943c0,0.672-0.489,1.284-1.161,1.284h-5.807
				c-0.672,0-1.161-0.611-1.161-1.284V249.96c0-2.995-0.488-4.951-4.034-4.951h-1.466c-2.812,0-4.279,0.795-4.279,4.951v21.943
				c0,0.672-0.488,1.284-1.161,1.284h-5.745c-0.673,0-1.161-0.611-1.161-1.284V249.96c0-7.702,4.584-11.675,12.347-11.675h1.466
				c3.423,0,6.174,0.795,8.068,2.445c1.894-1.65,4.706-2.445,8.129-2.445h1.467c7.762,0,12.347,3.973,12.347,11.675v21.943
				C172.258,272.575,171.769,273.186,171.097,273.186z"/>
			<path style="fill:#00B3EF;" d="M194.136,273.675c-1.466,0-3.606-0.122-5.868-0.428v10.819c0,0.672-0.55,1.222-1.222,1.222h-5.624
				c-0.672,0-1.222-0.55-1.222-1.222v-42.541c0-0.917,0.244-1.284,1.65-1.65c3.79-0.978,8.374-1.589,12.285-1.589
				c9.841,0,14.609,5.807,14.609,15.342v4.706C208.745,267.868,203.977,273.675,194.136,273.675z M200.676,253.627
				c0-5.012-1.283-8.741-6.541-8.741c-2.2,0-4.705,0.184-5.868,0.428v21.332c1.712,0.244,4.401,0.428,5.868,0.428
				c5.257,0,6.541-3.728,6.541-8.74V253.627z"/>
			<path style="fill:#00B3EF;" d="M229.524,245.07c-2.017,0-4.523,0.122-5.991,0.428v26.405c0,0.672-0.488,1.284-1.161,1.284h-5.684
				c-0.672,0-1.222-0.611-1.222-1.284v-30.011c0-0.795,0.55-1.467,1.65-1.834c3.912-1.284,7.152-1.773,12.408-1.773
				c0.733,0,1.773,0.122,1.773,1.039v4.646C231.297,244.642,230.93,245.07,229.524,245.07z"/>
			<path style="fill:#00B3EF;" d="M244.009,234.129h-5.929c-0.672,0-1.283-0.55-1.283-1.222v-5.379c0-0.672,0.611-1.223,1.283-1.223
				h5.929c0.672,0,1.223,0.55,1.223,1.223v5.379C245.232,233.579,244.681,234.129,244.009,234.129z M243.826,273.186h-5.623
				c-0.673,0-1.223-0.611-1.223-1.284v-31.967c0-0.672,0.55-1.223,1.223-1.223h5.623c0.672,0,1.222,0.55,1.222,1.223v31.967
				C245.048,272.575,244.498,273.186,243.826,273.186z"/>
			<path style="fill:#00B3EF;" d="M295.84,273.186h-5.746c-0.673,0-1.161-0.611-1.161-1.284V249.96c0-4.157-1.467-4.951-4.278-4.951
				h-1.467c-3.545,0-4.034,1.956-4.034,4.951v21.943c0,0.672-0.489,1.284-1.161,1.284h-5.807c-0.672,0-1.161-0.611-1.161-1.284
				V249.96c0-2.995-0.488-4.951-4.034-4.951h-1.466c-2.812,0-4.279,0.795-4.279,4.951v21.943c0,0.672-0.488,1.284-1.161,1.284
				h-5.745c-0.673,0-1.161-0.611-1.161-1.284V249.96c0-7.702,4.584-11.675,12.347-11.675h1.466c3.423,0,6.174,0.795,8.068,2.445
				c1.894-1.65,4.706-2.445,8.129-2.445h1.467c7.762,0,12.347,3.973,12.347,11.675v21.943
				C297.001,272.575,296.512,273.186,295.84,273.186z"/>
			<path style="fill:#00B3EF;" d="M331.899,258.761h-19.926v0.183c0,3.545,1.466,7.762,7.334,7.762c4.462,0,8.68-0.367,11.247-0.611
				c0.06,0,0.122,0,0.183,0c0.611,0,1.1,0.306,1.1,0.917v4.034c0,0.978-0.183,1.406-1.283,1.589
				c-3.973,0.733-6.357,1.039-11.858,1.039c-6.111,0-14.791-3.3-14.791-15.342v-4.523c0-9.535,5.318-15.525,14.669-15.525
				c9.413,0,14.547,6.418,14.547,15.525v3.423C333.122,258.211,332.755,258.761,331.899,258.761z M324.992,252.771
				c0-4.767-2.628-7.518-6.418-7.518s-6.541,2.689-6.541,7.518v0.244h12.958V252.771z"/>
			<path style="fill:#00B3EF;" d="M354.084,245.07c-2.017,0-4.523,0.122-5.991,0.428v26.405c0,0.672-0.488,1.284-1.161,1.284h-5.684
				c-0.672,0-1.222-0.611-1.222-1.284v-30.011c0-0.795,0.55-1.467,1.65-1.834c3.912-1.284,7.152-1.773,12.408-1.773
				c0.733,0,1.773,0.122,1.773,1.039v4.646C355.857,244.642,355.49,245.07,354.084,245.07z"/>
			<path style="fill:#00B3EF;" d="M387.395,258.761h-19.926v0.183c0,3.545,1.466,7.762,7.334,7.762c4.462,0,8.68-0.367,11.247-0.611
				c0.06,0,0.122,0,0.183,0c0.611,0,1.1,0.306,1.1,0.917v4.034c0,0.978-0.183,1.406-1.283,1.589
				c-3.973,0.733-6.357,1.039-11.858,1.039c-6.111,0-14.791-3.3-14.791-15.342v-4.523c0-9.535,5.318-15.525,14.669-15.525
				c9.413,0,14.547,6.418,14.547,15.525v3.423C388.618,258.211,388.25,258.761,387.395,258.761z M380.488,252.771
				c0-4.767-2.628-7.518-6.418-7.518s-6.541,2.689-6.541,7.518v0.244h12.958V252.771z"/>
		</g>
		<g>
			<path style="fill:#00B3EF;" d="M212.289,297.878c-1.596,0-2.859-0.177-4.034-0.709c-1.175,0.532-2.415,0.709-4.012,0.709
				c-3.236,0-5.009-1.928-5.009-5.696v-10.55c0-0.222,0.199-0.421,0.443-0.421h2.882c0.244,0,0.444,0.199,0.444,0.421v10.55
				c0,2.017,0.309,2.393,1.95,2.393h1.419v-12.922c0-0.244,0.2-0.443,0.444-0.443h2.904c0.244,0,0.443,0.178,0.443,0.421v12.944
				h1.419c1.64,0,1.951-0.376,1.951-2.393v-10.55c0-0.222,0.2-0.421,0.444-0.421h2.881c0.244,0,0.444,0.199,0.444,0.421v10.55
				C217.298,295.95,215.525,297.878,212.289,297.878z"/>
			<path style="fill:#00B3EF;" d="M223.5,283.538h-2.882c-0.244,0-0.443-0.199-0.443-0.443v-2.061c0-0.244,0.199-0.444,0.443-0.444
				h2.882c0.244,0,0.444,0.199,0.444,0.444v2.061C223.944,283.339,223.744,283.538,223.5,283.538z M223.412,297.679h-2.704
				c-0.244,0-0.444-0.199-0.444-0.443v-11.814c0-0.244,0.2-0.443,0.444-0.443h2.704c0.244,0,0.444,0.199,0.444,0.443v11.814
				C223.856,297.479,223.656,297.679,223.412,297.679z"/>
			<path style="fill:#00B3EF;" d="M236.974,297.679h-2.726c-0.244,0-0.444-0.222-0.444-0.466v-7.802
				c0-0.975-0.155-1.662-1.307-1.662h-1.108c-1.153,0-1.308,0.687-1.308,1.662v7.802c0,0.244-0.2,0.466-0.444,0.466h-2.726
				c-0.244,0-0.422-0.222-0.422-0.466v-7.802c0-3.058,1.707-4.61,4.899-4.61h1.108c3.191,0,4.898,1.552,4.898,4.61v7.802
				C237.396,297.457,237.219,297.679,236.974,297.679z"/>
			<path style="fill:#00B3EF;" d="M249.827,297.302c-1.263,0.31-3.014,0.576-4.721,0.576c-3.59,0-5.563-2.083-5.563-5.674v-1.729
				c0-3.48,1.817-5.674,5.563-5.674c0.444,0,1.175,0.067,1.817,0.155v-3.834c0-0.244,0.2-0.443,0.444-0.443h2.682
				c0.244,0,0.466,0.199,0.466,0.443v15.537C250.514,297.014,250.426,297.169,249.827,297.302z M246.923,287.882
				c-0.531-0.066-1.285-0.11-1.817-0.11c-1.574,0-1.973,1.152-1.973,2.704v1.729c0,1.574,0.399,2.726,1.973,2.726
				c0.732,0,1.397-0.066,1.817-0.133V287.882z"/>
			<path style="fill:#00B3EF;" d="M263.655,297.878c-1.751,0-3.059-0.199-4.189-0.487c-0.222-0.067-0.444-0.199-0.444-0.444v-2.172
				c0-0.31,0.177-0.421,0.399-0.421c0.022,0,0.045,0,0.067,0c0.908,0.089,3.346,0.266,4.211,0.266c1.53,0,1.973-0.487,1.973-1.551
				c0-0.643-0.31-0.997-1.462-1.685l-3.059-1.817c-2.061-1.219-2.615-2.615-2.615-4.233c0-2.438,1.374-4.322,5.674-4.322
				c1.617,0,3.857,0.266,4.698,0.487c0.178,0.045,0.333,0.155,0.333,0.399v2.239c0,0.199-0.089,0.377-0.377,0.377
				c0,0-0.022,0-0.045,0c-0.621-0.044-3.191-0.244-4.698-0.244c-1.263,0-1.729,0.376-1.729,1.174c0,0.621,0.287,0.909,1.485,1.552
				l2.837,1.529c2.305,1.241,2.992,2.704,2.992,4.499C269.706,295.374,268.154,297.878,263.655,297.878z"/>
			<path style="fill:#00B3EF;" d="M277.349,302.156c-1.906,0-3.436-0.333-4.234-0.599c-0.31-0.11-0.444-0.244-0.444-0.576v-1.485
				c0-0.221,0.155-0.399,0.399-0.399c0.023,0,0.023,0,0.045,0c0.998,0.089,3.169,0.266,4.234,0.266c1.529,0,1.839-0.355,1.839-1.64
				v-0.244c-0.399,0.089-1.352,0.199-1.862,0.199c-3.745,0-5.563-2.216-5.563-5.696v-6.56c0-0.244,0.199-0.443,0.444-0.443h2.682
				c0.244,0,0.443,0.199,0.443,0.443v6.56c0,1.552,0.421,2.748,1.994,2.748c0.532,0,1.33-0.067,1.862-0.133v-9.176
				c0-0.244,0.2-0.443,0.444-0.443h2.637c0.244,0,0.444,0.199,0.444,0.443v12.301C282.713,300.915,281.006,302.156,277.349,302.156z
				"/>
			<path style="fill:#00B3EF;" d="M301.529,297.679h-2.704c-0.245,0-0.444-0.244-0.444-0.487v-7.824
				c0-1.263-0.377-1.618-1.308-1.618h-0.421c-1.108,0-1.241,0.643-1.241,1.618v7.824c0,0.244-0.177,0.487-0.421,0.487h-2.727
				c-0.244,0-0.443-0.244-0.443-0.487v-7.824c0-0.975-0.133-1.618-1.241-1.618h-0.444c-0.93,0-1.285,0.355-1.285,1.618v7.824
				c0,0.244-0.2,0.487-0.444,0.487h-2.704c-0.244,0-0.444-0.244-0.444-0.487v-7.824c0-3.125,1.774-4.566,4.876-4.566h0.444
				c1.308,0,2.305,0.377,3.037,0.953c0.731-0.576,1.728-0.953,3.036-0.953h0.421c3.104,0,4.899,1.441,4.899,4.566v7.824
				C301.972,297.435,301.772,297.679,301.529,297.679z"/>
			<path style="fill:#00B3EF;" d="M309.926,297.878c-0.444,0-1.175-0.067-1.818-0.155v3.834c0,0.244-0.199,0.444-0.443,0.444h-2.682
				c-0.244,0-0.466-0.199-0.466-0.444v-15.537c0-0.355,0.089-0.51,0.687-0.643c1.263-0.31,3.014-0.576,4.721-0.576
				c3.59,0,5.563,2.083,5.563,5.674v1.729C315.489,295.684,313.671,297.878,309.926,297.878z M311.899,290.475
				c0-1.574-0.4-2.704-1.973-2.704c-0.732,0-1.397,0.044-1.818,0.11v6.915c0.532,0.067,1.286,0.133,1.818,0.133
				c1.573,0,1.973-1.175,1.973-2.726V290.475z"/>
			<path style="fill:#00B3EF;" d="M328.185,297.679h-2.682c-0.244,0-0.443-0.222-0.443-0.466v-7.38c0-1.552-0.288-2.061-1.64-2.061
				c-0.643,0-1.33,0.31-2.084,0.709v8.732c0,0.244-0.199,0.466-0.443,0.466h-2.682c-0.244,0-0.466-0.222-0.466-0.466v-16.091
				c0-0.244,0.199-0.443,0.443-0.443h2.705c0.244,0,0.443,0.199,0.443,0.443v4.677c1.131-0.732,2.062-0.998,3.391-0.998
				c3.214,0,3.923,2.239,3.923,5.031v7.38C328.651,297.457,328.429,297.679,328.185,297.679z"/>
			<path style="fill:#00B3EF;" d="M336.517,297.878c-3.591,0-5.564-2.239-5.564-5.763v-1.552c0-3.524,1.973-5.763,5.564-5.763
				s5.541,2.239,5.541,5.763v1.552C342.058,295.64,340.108,297.878,336.517,297.878z M338.49,290.564
				c0-1.795-0.687-2.704-1.973-2.704s-1.994,0.909-1.994,2.704v1.552c0,1.795,0.709,2.726,1.994,2.726s1.973-0.931,1.973-2.726
				V290.564z"/>
			<path style="fill:#00B3EF;" d="M354.733,297.679h-2.726c-0.244,0-0.444-0.222-0.444-0.466v-7.802
				c0-0.975-0.155-1.662-1.307-1.662h-1.108c-1.153,0-1.308,0.687-1.308,1.662v7.802c0,0.244-0.2,0.466-0.444,0.466h-2.726
				c-0.244,0-0.422-0.222-0.422-0.466v-7.802c0-3.058,1.707-4.61,4.899-4.61h1.108c3.191,0,4.898,1.552,4.898,4.61v7.802
				C355.155,297.457,354.978,297.679,354.733,297.679z"/>
			<path style="fill:#00B3EF;" d="M361.026,283.538h-2.881c-0.245,0-0.444-0.199-0.444-0.443v-2.061
				c0-0.244,0.199-0.444,0.444-0.444h2.881c0.244,0,0.444,0.199,0.444,0.444v2.061C361.469,283.339,361.269,283.538,361.026,283.538
				z M360.937,297.679h-2.704c-0.244,0-0.444-0.199-0.444-0.443v-11.814c0-0.244,0.2-0.443,0.444-0.443h2.704
				c0.244,0,0.444,0.199,0.444,0.443v11.814C361.381,297.479,361.181,297.679,360.937,297.679z"/>
			<path style="fill:#00B3EF;" d="M371.908,297.546c-0.621,0.155-1.618,0.332-2.948,0.332c-3.124,0-5.164-1.995-5.164-5.607v-1.862
				c0-3.612,2.039-5.607,5.164-5.607c1.33,0,2.328,0.178,2.948,0.333c0.332,0.089,0.466,0.177,0.466,0.51v1.973
				c0,0.221-0.2,0.376-0.422,0.376c0,0-0.022,0-0.044,0c-0.821-0.089-1.441-0.155-2.705-0.155c-0.997,0-1.817,0.598-1.817,2.571
				v1.862c0,1.973,0.821,2.571,1.817,2.571c1.263,0,1.884-0.067,2.705-0.155c0.022,0,0.044,0,0.044,0
				c0.222,0,0.422,0.155,0.422,0.377v1.973C372.374,297.369,372.24,297.457,371.908,297.546z"/>
			<path style="fill:#00B3EF;" d="M384.539,297.302c-1.263,0.31-2.992,0.576-4.699,0.576c-3.591,0-5.564-2.083-5.564-5.674v-1.729
				c0-3.591,1.973-5.674,5.564-5.674c1.707,0,3.436,0.266,4.699,0.576c0.598,0.133,0.686,0.288,0.686,0.643v10.639
				C385.225,297.014,385.137,297.169,384.539,297.302z M381.657,287.882c-0.421-0.066-1.086-0.11-1.817-0.11
				c-1.574,0-1.994,1.13-1.994,2.704v1.729c0,1.574,0.421,2.726,1.994,2.726c0.731,0,1.397-0.066,1.817-0.133V287.882z"/>
		</g>
	</g>
</g>
</svg>
