<?xml version="1.0" encoding="utf-8"?>
<!-- Generator: Adobe Illustrator 17.0.2, SVG Export Plug-In . SVG Version: 6.00 Build 0)  -->
<!DOCTYPE svg PUBLIC "-//W3C//DTD SVG 1.1//EN" "http://www.w3.org/Graphics/SVG/1.1/DTD/svg11.dtd">
<svg version="1.1" id="レイヤー_1" xmlns="http://www.w3.org/2000/svg" xmlns:xlink="http://www.w3.org/1999/xlink" x="0px"
	 y="0px" width="400px" height="100px" viewBox="-397.5 470.5 400 100" enable-background="new -397.5 470.5 400 100"
	 xml:space="preserve">
<circle opacity="0.15" fill="none" stroke="#FFFFFF" stroke-width="16" stroke-miterlimit="10" cx="-308.615" cy="520.203" r="24.114"/>
<text transform="matrix(1 0 0 1 -372.3395 525.5255)" fill="#FFFFFF" font-family="'ArialMT'" font-size="16">2011.12</text>
<g>
	<path fill="#FFFFFF" d="M-292.659,515.424c0,0.166-0.052,0.414-0.155,0.745c-0.103,0.331-0.155,0.58-0.155,0.744l-0.31,0.124
		c-0.29,0.331-0.786,0.785-1.488,1.364c-0.166,0.124-0.476,0.518-0.93,1.178c-0.29,0.331-0.765,0.58-1.426,0.745
		c-0.083-0.041-0.62-0.145-1.612-0.31c-2.067-1.199-3.266-1.922-3.596-2.17c-0.083-0.289-0.269-0.599-0.558-0.93
		c-0.414-0.413-0.662-0.702-0.744-0.868c-0.208-0.372-0.496-1.043-0.868-2.016c-0.372-0.97-0.496-1.581-0.372-1.829l-0.31-0.372
		v-0.496l-0.558-0.559l0.248-0.558c-0.455-0.165-0.682-0.537-0.682-1.116c0-0.164,0.041-0.309,0.124-0.434l-0.31-0.93l0.186-0.496
		c-0.124-0.164-0.29-0.392-0.496-0.682l-0.062-0.124h-0.248c0-0.082,0.04-0.164,0.124-0.248c-0.083-0.124-0.145-0.268-0.186-0.434
		l0.062-0.372c-0.042-0.124,0.051-0.66,0.279-1.612c0.227-0.95,0.392-1.477,0.496-1.581c0.102-0.102,0.217-0.175,0.341-0.216
		l-0.124-0.31l0.372-0.682l0.434,0.062l0.248-0.372c0.206,0,0.599,0.145,1.178,0.434l0.31-0.372l0.248-0.062
		c0.04,0.042,0.64,0.269,1.798,0.682c0.248,0.166,0.641,0.434,1.178,0.806l0.062,0.31c0.248,0.248,0.62,0.434,1.116,0.558
		c0.744,0.208,1.136,0.31,1.178,0.31c0.04,0.207,0.268,0.599,0.682,1.178c0,0.124-0.021,0.289-0.062,0.496l0.31,0.248l0.434-0.062
		c1.322,1.447,1.922,3.286,1.798,5.518c0.33,0.785,0.992,1.882,1.984,3.287l-0.124,0.558
		C-292.721,514.805-292.659,515.094-292.659,515.424z M-274.244,529.127c-0.456,0.91-0.972,1.592-1.55,2.047
		c-0.331,0.414-0.786,0.971-1.364,1.674c-0.496,0.537-1.364,1.023-2.605,1.457c-1.24,0.434-2.253,0.651-3.038,0.651
		c-0.331-0.33-0.879-0.63-1.643-0.899c-0.765-0.268-1.333-0.651-1.705-1.147c-0.538-0.537-1.24-1.405-2.108-2.605
		c-0.331-0.619-0.89-1.488-1.674-2.604c-0.91,4.134-1.572,8.122-1.984,11.966c0.041,0.29,0.02,0.704-0.062,1.241
		c0.372,0.496,0.558,1.302,0.558,2.418c0,0.29-0.217,0.775-0.651,1.458c-0.434,0.682-0.672,1.167-0.713,1.457
		c-0.662,0.33-1.138,0.496-1.426,0.496l-0.31-0.063c-1.282-1.943-1.922-3.988-1.922-6.138c0-0.745,0.102-1.281,0.31-1.612
		l-0.062-0.496l0.248-0.558l-0.186-0.496c0.413-1.571,0.971-2.356,1.674-2.356l2.232-11.843c-0.124-0.165-0.207-0.351-0.248-0.559
		h0.186l-0.248-0.868c0.992-3.265,2.067-8.783,3.224-16.555c0.041-0.207,0.248-1.198,0.62-2.976
		c0.248-1.322,0.372-2.314,0.372-2.976c0-0.496-0.124-1.249-0.372-2.263c-0.248-1.012-0.372-1.787-0.372-2.325
		c0-0.207,0.102-0.434,0.31-0.682l0.62-0.372l0.248,0.062c0.744-0.082,0.992-0.124,0.744-0.124c0.124,0,0.558,0.228,1.302,0.682
		c0.372,0.248,0.784,0.434,1.24,0.559c1.033,0.248,1.942,1.509,2.728,3.782l-0.062,0.31l0.124,0.682
		c-0.042,0.124-0.393,0.868-1.054,2.233l0.31,0.372c0.124,0,0.32-0.063,0.589-0.186c0.268-0.124,0.465-0.186,0.589-0.186
		c0.702,0,1.736,0.289,3.1,0.868l0.062,0.186c0.248,0.124,0.599,0.31,1.054,0.558c0.95,0.91,1.714,1.82,2.294,2.729
		c-0.207,1.529-0.31,2.749-0.31,3.657c-0.248,0-0.62,0.063-1.116,0.187l-0.248,0.248c-0.083,0.331-0.228,0.827-0.434,1.488
		l-0.434-0.372l-0.93,0.434c-0.083-0.082-0.538-0.702-1.364-1.86c-0.579-0.785-1.178-1.261-1.798-1.426
		c-0.414-0.785-0.828-1.581-1.24-2.387c-0.414-0.806-0.62-1.622-0.62-2.449c-1.281,1.281-2.418,4.382-3.41,9.3
		c-0.042,0.496-0.146,1.178-0.31,2.047c-0.951,2.852-1.426,4.568-1.426,5.146c0,0.248,0.02,0.496,0.062,0.745l0.372,0.124
		c0.206,0.248,0.558,0.599,1.054,1.054c0.124-0.041,0.268-0.062,0.434-0.062c0.372,0,0.795,0.207,1.271,0.619
		c0.475,0.414,0.837,0.662,1.085,0.745v0.248c0.537,0.868,0.806,1.633,0.806,2.294c1.033,0.744,1.695,1.509,1.984,2.294
		c0.496,0,1.426,0.703,2.79,2.108c0.288,0.208,0.765,0.31,1.426,0.31c0.909,0,1.694-0.765,2.356-2.294L-274.244,529.127z
		 M-248.512,502.466l-0.558,0.558l-0.682,0.31c0.124,0.289,0.165,0.538,0.124,0.744l-0.124,0.869l-0.434,0.062l-0.372,0.186
		l-0.248,0.372v0.372c-0.703,0.248-1.819,0.496-3.348,0.745c-0.496,0.083-1.499,0.704-3.007,1.86
		c-1.509,1.158-2.429,1.963-2.759,2.419c-0.083,0.123-0.228,0.434-0.434,0.93l0.372,0.31l0.434,0.124l0.806,0.805l-0.186,0.31
		l0.682,0.373c-0.083,0.248-0.228,0.599-0.434,1.054c-0.207,0.248-0.445,0.589-0.713,1.023c-0.269,0.434-0.558,1.436-0.868,3.007
		c-0.31,1.572-0.465,2.625-0.465,3.162c0,5.084,0.434,8.556,1.302,10.416l-0.186,0.373c0,0.991,0.186,2.418,0.558,4.278
		c-0.331,0.166-0.754,0.631-1.271,1.395c-0.517,0.765-0.775,1.333-0.775,1.705c-0.538,0.248-1.065,0.526-1.581,0.837
		c-0.517,0.31-0.879,0.735-1.085,1.271c-0.248,0.042-0.455,0.022-0.62-0.062c-0.166,0.124-0.662,0.599-1.488,1.426
		c-0.827,0.826-1.282,1.322-1.364,1.487l-0.062,0.248c-0.208,0-0.538,0.186-0.992,0.558c-0.042,0.041-0.062,0.248-0.062,0.62h-0.186
		c-0.579-0.042-0.91,0.413-0.992,1.364c-0.538,0.083-0.848,0.393-0.93,0.93l-0.062-0.124h-0.124l-0.124,0.062
		c-0.042,0-0.062,0.021-0.062,0.062c0.041,0.041,0.124,0.082,0.248,0.123v0.187c-0.62,0.372-1.116,0.66-1.488,0.868
		c0.289-0.29,0.703-0.786,1.24-1.488c0.124-0.208,0.351-0.724,0.682-1.55c0.165-0.414,0.599-0.848,1.302-1.302l-0.31-0.62
		c0.041-0.124,0.103-0.208,0.186-0.248l0.496,0.062l0.062-0.062c0.083-0.704,0.413-1.529,0.992-2.48
		c0.785-1.322,1.24-2.108,1.364-2.356c1.446-3.306,2.17-6.841,2.17-10.603c0-0.496-0.031-1.24-0.093-2.232
		c-0.062-0.992-0.093-1.757-0.093-2.294c0-6.2-0.31-10.375-0.93-12.525c-0.91-0.289-1.447-0.474-1.612-0.558
		c-0.661-0.289-1.076-0.661-1.24-1.116h-0.124l-0.186,0.248c-0.29-0.041-0.827-0.62-1.612-1.737
		c-0.083-0.041-0.642-0.62-1.674-1.736c-0.62-0.579-1.344-1.715-2.17-3.411l0.124-0.248c-0.331-0.33-0.537-0.682-0.62-1.054
		l0.062-0.373l-0.31-0.868c0.124-0.868,0.413-1.405,0.868-1.612v-0.186c-0.041-0.372,0.155-0.775,0.589-1.208
		c0.434-0.434,0.837-0.652,1.209-0.652c0.372,0,0.93,0.259,1.674,0.775c0.744,0.518,1.467,0.755,2.17,0.713h-0.124l-0.062,0.186
		l0.062,0.186c0.33,0.455,0.97,0.745,1.922,0.869c0.744,0.083,1.466,0.165,2.17,0.248c1.075-0.248,2.501-0.413,4.279-0.496
		c2.314-0.124,3.74-0.207,4.278-0.248l0.496,0.309l0.186-0.248h0.124c0.082,0.083,0.227,0.166,0.434,0.248l0.31-0.123h0.186
		c0.04,0,0.103,0.021,0.186,0.062l0.31,0.248l0.248,0.062l0.558-0.372c0.454,0.083,1.137,0.289,2.046,0.619
		C-249.876,501.288-249.298,501.804-248.512,502.466z"/>
</g>
<text transform="matrix(1 0 0 1 -209.5863 523.1678)" fill="#FFFFFF" font-family="'ArialMT'" font-size="24">Winter Concert</text>
<text transform="matrix(1 0 0 1 -186.6039 545.8387)" fill="#FFFFFF" font-family="'Osaka'" font-size="14">@ 神戸文化ホール</text>
<g opacity="0.2">
	<path fill="#FFFFFF" d="M0.5,472.5v96h-396v-96H0.5 M2.5,470.5h-400v100h400V470.5L2.5,470.5z"/>
</g>
<polyline opacity="0.7" fill="none" stroke="#FFFFFF" stroke-width="2" stroke-miterlimit="10" points="-15.603,512.954 
	-10.292,520.5 -15.603,528.046 "/>
</svg>
