<?xml version="1.0" encoding="utf-8"?>
<!-- Generator: Adobe Illustrator 17.0.2, SVG Export Plug-In . SVG Version: 6.00 Build 0)  -->
<!DOCTYPE svg PUBLIC "-//W3C//DTD SVG 1.1//EN" "http://www.w3.org/Graphics/SVG/1.1/DTD/svg11.dtd">
<svg version="1.1" id="レイヤー_1" xmlns="http://www.w3.org/2000/svg" xmlns:xlink="http://www.w3.org/1999/xlink" x="0px"
	 y="0px" width="400px" height="100px" viewBox="-397.5 470.5 400 100" enable-background="new -397.5 470.5 400 100"
	 xml:space="preserve">
<circle opacity="0.15" fill="none" stroke="#FFFFFF" stroke-width="16" stroke-miterlimit="10" cx="-308.615" cy="520.203" r="24.114"/>
<g>
	<path fill="#FFFFFF" d="M-276.179,512.673v0.06l-0.24,0.18l-0.06,0.12l-0.841-0.06c-0.161,0-0.421,0.081-0.782,0.24v0.542
		c-0.24-0.2-0.441-0.34-0.601-0.421l-0.181,0.18c-0.24,0.161-0.601,0.421-1.082,0.782l-0.841-0.421
		c-0.721,0.161-1.163,0.241-1.323,0.241c-0.08,0-0.18-0.04-0.3-0.12c-0.12-0.08-0.221-0.12-0.301-0.12l-1.142,0.241l-0.842-0.241
		l-0.481,0.481l-0.12-0.24l-0.421,0.18c-0.12-0.08-0.281-0.14-0.481-0.18c0,0.04-0.301,0.28-0.902,0.721l-0.12-0.12
		c-0.16,0.04-0.261,0-0.3-0.12l-0.24,0.541c0.24,0.322,0.5,0.882,0.781,1.684c-2.445,1.482-4.048,2.966-4.809,4.448
		c-0.441,0-0.742-0.019-0.902-0.06l-1.082,1.562l-0.12,0.661c-0.161-0.12-0.301-0.18-0.421-0.18l0.06,0.061v0.12
		c0,0.081-0.021,0.142-0.06,0.181c1.001,0.16,2.384,0.401,4.148,0.721c0.481-0.801,0.982-1.613,1.503-2.435
		c0.521-0.82,1.182-1.432,1.984-1.833c1.482,0.321,2.605,0.862,3.366,1.623v0.301c0.04,0.16,0.14,0.401,0.301,0.721
		c0.16,0.321,0.24,0.622,0.24,0.902c-0.481,0-0.862,0.2-1.142,0.601c-0.201-0.12-0.381-0.18-0.541-0.18
		c-0.361,0-0.922,0.161-1.683,0.481l-0.181,0.301l-0.12-0.481c-0.521,0.281-1.322,1.103-2.405,2.464
		c-0.16,0.161-0.381,0.361-0.661,0.601c-1.202,1.202-1.924,2.445-2.164,3.727l0.06,0.06c-0.12,0-0.04-0.04,0.24-0.12l0.06,0.24
		c-0.682,0.401-1.163,1.403-1.443,3.006l-0.481-0.12l-0.12,0.12c-0.081,0.04-0.161,0.07-0.24,0.09
		c-0.081,0.02-0.141,0.07-0.181,0.15l-0.18,0.301l-0.12,0.12l-0.181-0.061l-0.12-0.24l-0.18,0.06l-0.601,0.782
		c-0.481-0.721-0.721-1.924-0.721-3.607c0-0.561,0.28-1.102,0.842-1.623c0.841-0.801,1.302-1.263,1.383-1.383
		c0.24-0.36,0.501-0.782,0.781-1.263c-0.401-0.039-0.761-0.06-1.082-0.06c-1.363,0-2.164,0.461-2.405,1.383c-0.24,0-0.622,0-1.142,0
		c-0.081,0.12-0.141,0.261-0.18,0.42c-0.361-0.32-0.721-0.64-1.082-0.962c-0.161-0.2-0.321-0.681-0.481-1.443
		c-0.12-0.159-0.24-0.46-0.361-0.901l0.06-0.241c-0.081-0.64,0.05-1.232,0.391-1.773c0.34-0.542,0.831-0.831,1.473-0.872
		c1.042-1.322,2.424-3.426,4.148-6.312c-0.762,0.562-2.204,1.123-4.328,1.683c-1.043,0.241-2.084,0.481-3.126,0.722
		c-0.721-0.44-1.803-1.042-3.246-1.803l-2.224-2.224c0-0.241-0.101-0.59-0.301-1.052c-0.201-0.46-0.301-0.812-0.301-1.052
		c0-0.16,0.06-0.32,0.18-0.481c1.202-0.801,2.004-1.202,2.405-1.202c0.441,0,1.121,0.2,2.044,0.601
		c1.162,0.481,1.863,0.762,2.104,0.841c1.482-0.48,3.526-0.961,6.132-1.442c3.607-0.641,5.69-1.023,6.252-1.142
		c0.24-0.04,0.601-0.1,1.082-0.181c-0.762-0.601-1.924-1.503-3.487-2.705c-0.481-0.521-1.223-1.283-2.224-2.284
		c-0.16-0.04-0.401-0.16-0.721-0.361c0-0.32-0.15-0.901-0.451-1.743c-0.301-0.842-0.532-1.342-0.691-1.503l-0.24-0.12v-0.542
		l-0.541-0.481l-0.18-0.361l0.24-1.022l-0.3-0.361l0.06-0.841c-0.16-0.4-0.241-0.801-0.241-1.202c0-0.921,0.181-1.722,0.541-2.405
		h0.18l0.18-0.12l0.181,0.12c0.16-0.601,0.441-0.981,0.841-1.142c0.08-0.04,0.541-0.16,1.383-0.36
		c0.521,0.24,1.182,0.721,1.984,1.443c0.801,0.721,1.362,1.162,1.683,1.322c0.04,0.361,0.501,1.043,1.383,2.043
		c1.042,1.203,1.643,1.924,1.804,2.165c0.28,0.641,0.781,1.443,1.503,2.405l0.301,0.12l0.301,0.301v0.481
		c0.481,0.201,0.761,0.682,0.841,1.443c-0.04,0.04-0.15,0.912-0.331,2.615c-0.18,1.704-0.27,2.675-0.27,2.915
		c0.721-0.721,1.482-0.981,2.284-0.782l0.18-0.3l0.12,0.3h0.18c0.28,0,0.821,0.301,1.623,0.902c1.162,0.841,1.763,1.283,1.803,1.322
		c0,0.12-0.021,0.201-0.06,0.241l0.06,0.12C-276.761,511.973-276.501,512.273-276.179,512.673z M-277.021,541.468
		c-0.641,0.2-1.343,0.681-2.104,1.443c-0.761,0.761-1.262,1.463-1.503,2.104l-0.361-0.241c-0.24,0.241-0.641,0.501-1.202,0.782
		c-1.804,0-3.306-0.761-4.509-2.284c-0.16-0.2-1.043-1.703-2.645-4.509c-1.683,1.683-3.086,4.128-4.208,7.334
		c-0.24,1.042-0.781,2.565-1.623,4.569l-0.481,0.24l-1.082-0.24l-0.18-0.361l-0.721-0.06l-1.142-2.645
		c0.12-0.922,0.801-2.245,2.044-3.968c0.921-1.202,1.864-2.405,2.825-3.607c1.202-1.722,2.414-3.457,3.637-5.2
		c1.222-1.743,2.594-3.376,4.118-4.899c0.921-0.921,1.482-1.463,1.683-1.623c0.721-0.641,1.383-1.062,1.984-1.263
		c-0.081-0.04,0.18-0.061,0.782-0.061c0.24,0,0.621,0.142,1.142,0.421l0.3-0.06c0.441,0.521,1.042,1.382,1.804,2.585
		c-0.521,1.523-1.262,2.284-2.224,2.284c-0.321,0-0.702-0.12-1.142-0.361c-0.441-0.24-0.721-0.36-0.841-0.36
		c-0.12,0-1.082,0.902-2.886,2.705c0.28,0.481,0.721,0.761,1.322,0.841l0.541,0.722c0.12,0.04,0.22,0.12,0.301,0.24
		c0.2,0.441,0.481,1.183,0.841,2.224c0.12,0.521,0.34,1.202,0.661,2.043c0.361,0.521,0.801,1.303,1.323,2.345
		c0.36-0.12,0.902-0.41,1.623-0.872c0.721-0.46,1.282-0.731,1.683-0.812l0.181,0.181L-277.021,541.468z M-290.066,529.445
		c-0.481,0.12-0.882,0.521-1.202,1.202c0.16-0.28,0.31-0.541,0.451-0.782C-290.677,529.625-290.426,529.486-290.066,529.445z
		 M-287.301,525.958c-0.28,0.161-0.601,0.541-0.961,1.142l-0.361,0.18c0.28-0.4,0.621-0.861,1.022-1.382L-287.301,525.958z
		 M-267.944,522.051l-0.962,1.142c-1.002,0-1.503,1.002-1.503,3.006c0,0.401,0.1,1.603,0.301,3.607l-0.301,0.301v0.42
		c-0.12,0.12-0.201,0.261-0.24,0.421c0.04,0.281,0.08,0.521,0.12,0.721l-0.481,0.241c-0.442,0.521-1.202,1.182-2.285,1.984
		c-1.042-0.521-1.703-1.462-1.984-2.825c-0.24-1.162-0.481-2.345-0.721-3.547v-0.661c0-0.241,0.06-0.581,0.18-1.022
		c0.12-0.441,0.181-0.782,0.181-1.022c0-0.241-0.081-0.611-0.24-1.112c-0.161-0.501-0.24-0.872-0.24-1.113l0.24-0.06v-0.301
		l-0.121-2.405l-0.18-0.24c0-0.12,0.03-0.291,0.09-0.511c0.06-0.22,0.09-0.391,0.09-0.511c0-0.32-0.12-0.751-0.36-1.292
		c-0.24-0.541-0.361-0.971-0.361-1.293c0-0.68,0.29-1.332,0.872-1.953c0.58-0.621,1.212-0.932,1.893-0.932
		c0.16,0,0.34,0.02,0.541,0.06c2.244,1.363,3.767,3.166,4.568,5.41c0.4,0.241,0.641,0.782,0.721,1.623
		C-268.004,521.39-267.944,522.011-267.944,522.051z M-254.479,506.421l-0.301,0.962l0.06,0.421
		c-0.401,0.761-1.103,1.623-2.104,2.585c-1.002,0.962-1.603,1.663-1.803,2.104c-0.442,0.841-0.822,2.545-1.142,5.109
		c-0.321,2.245-0.481,4.049-0.481,5.411c0,0.721,0.039,1.784,0.12,3.186c0.08,1.403,0.12,2.465,0.12,3.185
		c0,0.882-0.12,2.666-0.361,5.35c-0.04,0.121-0.06,0.241-0.06,0.361c0,2.165,0.24,3.948,0.721,5.35
		c0.2,0.722,0.301,1.123,0.301,1.203l-0.12,1.022c-0.081,0.081-0.12,0.161-0.12,0.241c0.08,0.04,0.16,0.1,0.24,0.18
		c0.08,0.24,0.12,0.521,0.12,0.841c0-0.04,0.06,0.1,0.181,0.421l0.18,0.18c-0.12,0.361-0.18,1.022-0.18,1.984l-0.181,1.263
		l-1.322,1.202h-1.142c-1.243-1.403-2.044-3.046-2.405-4.929c0.12-0.521,0.28-0.902,0.481-1.142c0-0.321,0.04-1.001,0.121-2.044
		c0.08-0.881,0.099-1.542,0.06-1.984c-0.081-1.042-0.12-1.503-0.12-1.383v-14.126c0-0.28-0.12-2.784-0.361-7.514
		c-0.04-1.764-0.201-4.428-0.481-7.996c-0.081-0.44-0.301-1.402-0.662-2.886c-0.361-1.362-0.541-2.183-0.541-2.464
		c0-0.481,0.14-0.861,0.421-1.142c-0.321-0.721-0.481-1.322-0.481-1.803c0.08-0.2,0.26-0.421,0.541-0.661
		c-0.12-0.2-0.181-0.361-0.181-0.481c0-0.16,0.16-0.361,0.481-0.601c0.12-0.12,0.421-0.5,0.902-1.142
		c0.44-0.24,0.761-0.5,0.961-0.782l0.181-0.06l0.361,0.06l0.601-0.3c0.2,0,0.52,0.04,0.961,0.12
		c0.361,0.241,0.862,0.562,1.503,0.962l0.06,0.36c0.4,0.361,0.921,1.043,1.563,2.044c0.08,0.12,0.18,0.241,0.301,0.36
		c0.12,0.12,0.18,0.322,0.18,0.601c0.24,0.12,0.561,0.441,0.962,0.962c0.681,1.043,1.102,2.005,1.262,2.886
		C-254.84,505.18-254.64,506.021-254.479,506.421z"/>
</g>
<text transform="matrix(1 0 0 1 -372.3395 525.5255)" fill="#FFFFFF" font-family="'ArialMT'" font-size="16">2011.02</text>
<text transform="matrix(1 0 0 1 -209.5863 523.1678)" fill="#FFFFFF" font-family="'ArialMT'" font-size="24">Winter Concert</text>
<text transform="matrix(1 0 0 1 -179.6039 545.8387)" fill="#FFFFFF" font-family="'Osaka'" font-size="14">@ 高槻現代劇場</text>
<g opacity="0.2">
	<path fill="#FFFFFF" d="M0.5,472.5v96h-396v-96H0.5 M2.5,470.5h-400v100h400V470.5L2.5,470.5z"/>
</g>
<polyline opacity="0.7" fill="none" stroke="#FFFFFF" stroke-width="2" stroke-miterlimit="10" points="-15.603,512.954 
	-10.292,520.5 -15.603,528.046 "/>
</svg>
