<?xml version="1.0" encoding="utf-8"?>
<!-- Generator: Adobe Illustrator 17.0.2, SVG Export Plug-In . SVG Version: 6.00 Build 0)  -->
<!DOCTYPE svg PUBLIC "-//W3C//DTD SVG 1.1//EN" "http://www.w3.org/Graphics/SVG/1.1/DTD/svg11.dtd">
<svg version="1.1" id="レイヤー_1" xmlns="http://www.w3.org/2000/svg" xmlns:xlink="http://www.w3.org/1999/xlink" x="0px"
	 y="0px" width="400px" height="100px" viewBox="-397.5 470.5 400 100" enable-background="new -397.5 470.5 400 100"
	 xml:space="preserve">
<circle opacity="0.15" fill="none" stroke="#FFFFFF" stroke-width="16" stroke-miterlimit="10" cx="-308.615" cy="520.203" r="24.114"/>
<text transform="matrix(1 0 0 1 -372.3395 525.5255)" fill="#FFFFFF" font-family="'ArialMT'" font-size="16">2012.12</text>
<g>
	<path fill="#FFFFFF" d="M-253.703,530.767c-0.08,0.201-0.221,0.462-0.421,0.782c0,0.161,0.02,0.301,0.06,0.42
		c-0.641,0.281-0.902,0.762-0.782,1.443c-0.682,0.322-1.002,0.882-0.962,1.684l-0.421-0.061c0.08-0.12,0.2-0.28,0.361-0.481
		l-0.06-0.18c-0.081-0.08-0.16-0.13-0.24-0.15c-0.081-0.02-0.131-0.07-0.15-0.151c-0.021-0.079-0.051-0.14-0.09-0.18l-0.06,0.061
		l0.06,0.36h-0.301c0,0.04-0.08,0.321-0.24,0.841c-0.08,0.281-0.06,0.541,0.06,0.782c0-0.08-0.04-0.16-0.12-0.241l-0.06,0.12
		l-0.782,0.661l0.18,0.18l0.06,0.361c-0.081,0.201-0.241,0.501-0.481,0.901l-0.06-0.361l0.06-0.301c0.08-0.12,0.18-0.22,0.301-0.301
		l-0.481-0.301l-0.301-0.481l-0.36,0.361l0.06,0.12c-0.04,0.12-0.081,0.301-0.121,0.542h-0.12l0.12,0.06h0.121h0.06
		c-0.08,0.081-0.12,0.141-0.12,0.18l0.06,0.12l-0.06,0.12l-0.12-0.061l-0.12-0.12c-0.04,0-0.101,0-0.18,0
		c-0.321,0-0.592,0.231-0.812,0.691c-0.221,0.462-0.291,0.872-0.211,1.232l-0.421-0.12c-0.12,0.16-0.301,0.381-0.541,0.661
		l-0.361-0.301l-0.06-0.18l0.12-0.18l0.06-0.12l-0.06-0.18l-0.541,0.481c-0.04,0.441-0.201,0.802-0.481,1.081
		c-0.12-0.159-0.24-0.24-0.361-0.24l-0.18,0.18l-0.18,0.962l-0.18-0.24l-0.481,0.12l-0.06,0.12l-0.481,0.301
		c0-0.16-0.06-0.4-0.18-0.722l-0.12,0.181l-0.06,0.36l-0.181,0.24c-0.161,0.081-0.3,0.18-0.421,0.301l-0.06,0.18l0.12,0.241h-0.18
		c-0.081-0.04-0.141-0.08-0.181-0.12c-0.04-0.04-0.08-0.06-0.12-0.06c-0.12,0-0.211,0.029-0.27,0.09
		c-0.06,0.06-0.211,0.451-0.451,1.172c-0.201,0-0.502,0.04-0.902,0.12c-0.081,0.081-0.141,0.18-0.18,0.301l-0.181-0.24l-0.3,0.24
		v-0.421l-0.601,0.181v0.721l-0.421-0.361c-0.401,0.361-1.102,0.861-2.104,1.503h-0.481c-0.16,0.04-0.341,0.241-0.541,0.601v-0.061
		h-0.421c-0.561,0.321-1.623,0.671-3.186,1.052c-1.563,0.381-2.666,0.571-3.306,0.571c-0.321,0-0.812,0.061-1.473,0.181
		c-0.661,0.12-1.153,0.18-1.473,0.18c-0.481,0-0.842-0.061-1.082-0.18l-1.082,0.36c-0.762-0.12-1.784-0.301-3.066-0.542l-0.481,0.12
		l-0.541-0.24l-0.902,0.12l-0.3-0.42l-0.541,0.24c-4.248-1.202-7.735-2.805-10.46-4.808c-3.727-2.685-5.59-5.831-5.59-9.438
		c0-1.481,0.55-2.635,1.653-3.457c1.102-0.82,2.214-1.652,3.336-2.494c1.402-1.283,2.424-3.105,3.066-5.47
		c-0.04-0.32-0.481-1.102-1.322-2.345c-0.762-1.121-1.142-2.464-1.142-4.028c0-0.801,0.32-1.522,0.962-2.164
		c-0.04-0.12-0.06-0.24-0.06-0.361c0-0.52,0.641-1.151,1.924-1.893c1.282-0.741,2.023-1.373,2.224-1.894
		c0.04-0.361,0.12-0.881,0.24-1.562c0.04-0.12,0.12-0.2,0.24-0.241c0-1.803-0.902-3.607-2.705-5.41
		c-0.321-0.08-0.782-0.421-1.383-1.022c-0.201-0.441-0.442-1.082-0.721-1.924c-0.481-1.242-0.721-1.824-0.721-1.743
		c0-0.32,0.16-0.621,0.481-0.902c0.721-0.681,1.302-1.081,1.743-1.202c0.24-0.04,0.982-0.06,2.224-0.06
		c0.641,0,1.623,0.2,2.945,0.601l0.361-0.06c0.681,0.601,1.482,1.043,2.404,1.322c0.08,0.36,0.621,0.882,1.623,1.563
		c0.881,0.681,1.282,1.183,1.202,1.503c0.441,0.441,0.921,1.313,1.443,2.615c0.521,1.302,0.782,2.254,0.782,2.855
		c0,1.403-0.382,2.524-1.142,3.367c-1.844,0.401-3.147,0.742-3.908,1.022c-1.442,0.562-2.505,1.322-3.186,2.284
		c-0.601,0.802-0.902,1.463-0.902,1.984c0.32,0.322,0.821,0.862,1.503,1.623c1.683,2.485,2.525,4.489,2.525,6.011
		c0,0.883-0.622,1.804-1.863,2.765l-2.766,2.165c-0.521,0.841-1.262,2.064-2.224,3.667c-0.401,0.521-0.983,1.322-1.743,2.404
		c0.361,1.403,1.463,2.565,3.306,3.487c0.2,0.361,0.581,0.761,1.142,1.202c0.721,0.562,1.162,0.902,1.323,1.023
		c0.52,0.321,1.342,0.721,2.464,1.202c0.641,0.201,1.542,0.502,2.705,0.902c0.28,0.201,0.741,0.42,1.383,0.661
		c1.763,0.36,4.588,0.742,8.476,1.142l0.06-0.12c-0.081-0.12-0.16-0.16-0.241-0.12h0.661l0.06,0.061v0.18
		c0.04,0.081,0.12,0.141,0.24,0.18h2.464l0.301-0.481l0.06,0.301l0.481-0.241l-0.18-0.12c0.039-0.08,0.099-0.141,0.18-0.181h0.06
		l-0.06,0.12c0.08,0.04,0.18,0.141,0.3,0.301h0.601c0.08-0.08,0.26-0.24,0.541-0.481l0.06-0.18c-0.04,0.081,0.1,0.141,0.421,0.18
		c0.761-0.361,1.242-0.541,1.442-0.541c0.16,0,0.301,0.06,0.421,0.18c0.2-0.2,0.5-0.481,0.902-0.841l0.361-0.12
		c0.12,0.04,0.22,0.1,0.301,0.18l0.06-0.241c0.08-0.079,0.2-0.24,0.361-0.48l0.301,0.3v-0.361h0.24
		c-0.281,0.241-0.582,0.562-0.902,0.962c0.12,0.12,0.26,0.18,0.421,0.18c0.4-0.721,1.001-1.282,1.803-1.683l0.541,0.24l0.661-0.24
		l-0.24-0.601l0.24,0.06c0.12,0.12,0.32,0.382,0.601,0.782l0.481-1.022l0.601,0.301l0.12-1.503l0.24,0.06
		c0.2-0.04,0.421-0.12,0.661-0.241l0.301,0.061l0.361-0.361l0.12,0.12c-0.04,0.081-0.101,0.12-0.18,0.12l0.06,0.12l0.361-0.12v-0.24
		c-0.081-0.08-0.201-0.2-0.361-0.361l-0.06,0.061l0.24-0.36l1.142-0.542l0.301,0.421c0.561-0.4,1.222-1.001,1.984-1.803
		c0.04-0.04,0.511-0.641,1.412-1.804c0.902-1.161,1.372-1.763,1.413-1.803c0.2-0.079,0.501-0.28,0.902-0.601
		c0.12-0.08,0.22-0.28,0.301-0.601l0.18-0.241c0.12-0.039,0.24-0.079,0.36-0.12l0.06-0.061c0.04,0.081,0.1,0.201,0.18,0.361
		c-0.201,0.24-0.3,0.441-0.3,0.601c0.039,0.161,0.08,0.301,0.12,0.421l0.12-0.06v-0.12L-253.703,530.767z M-259.534,515.258
		c-0.361,0.241-0.922,0.521-1.683,0.841c-0.201,0-0.481,0.021-0.842,0.061l-0.12,0.24c-0.201-0.159-1.142-0.24-2.825-0.24
		c0.08,0-0.301,0.141-1.142,0.42c-0.281,0.081-0.702,0.18-1.263,0.301c-1.122,0.441-2.164,0.943-3.126,1.503
		c0.24,0.2,0.44,0.591,0.601,1.172c0.16,0.582,0.32,0.972,0.481,1.172c0.841,0.12,1.683,0.221,2.525,0.301
		c1.042,0.2,1.602,0.702,1.683,1.503c-0.562,0.562-1.623,1.203-3.186,1.924c-0.361,0.201-0.923,0.462-1.683,0.782
		c0,0.321-0.06,0.782-0.18,1.382l0.3,0.301c0.681-0.08,1.202-0.12,1.563-0.12c1.161,0,2.044,0.301,2.645,0.902
		c-0.081,0.722-0.781,1.383-2.104,1.983c-0.16,0.081-0.622,0.18-1.383,0.301c-0.521,0.04-0.983,0.341-1.383,0.902
		c-0.04,0.321-0.12,0.811-0.24,1.472c-0.12,0.661-0.18,1.193-0.18,1.594c0.24,0.12,0.481,0.2,0.721,0.24
		c0.52-0.2,1.342-0.46,2.464-0.782c0.601,0.201,1.252,0.421,1.954,0.661c0.701,0.241,1.052,0.682,1.052,1.323
		c-0.682,0.521-1.923,1.042-3.727,1.562c-1.803,0.521-3.166,0.782-4.087,0.782c-0.361,0-0.852-0.019-1.473-0.06
		c-0.622-0.04-1.092-0.061-1.413-0.061c-0.361,0-0.822,0.061-1.383,0.18c-0.721,0.161-1.183,0.261-1.383,0.301
		c-0.321-0.159-0.782-0.24-1.383-0.24c-0.762,0.04-1.262,0.02-1.503-0.061l-0.721-2.164c0.32-1.082,0.481-1.783,0.481-2.104
		c-1.082-0.761-1.623-1.924-1.623-3.486c0-0.481,0.06-1.203,0.181-2.165c0.12-0.962,0.18-1.683,0.18-2.164
		c0-2.244-0.201-3.607-0.601-4.087c-0.401,0.04-0.832,0.08-1.292,0.12c-0.461,0.04-0.751,0.261-0.871,0.661
		c-0.601-0.28-1.323-0.721-2.164-1.322c-0.04-0.28-0.16-0.841-0.36-1.683c-0.161-0.641-0.24-1.182-0.24-1.623
		c0-1.082,0.48-2.364,1.442-3.847c0.24-0.32,1.102-1.443,2.585-3.366c0.881-1.121,2.164-3.066,3.847-5.831
		c0.32-0.481,0.902-2.003,1.743-4.568l-0.06-0.301l0.12-0.42l-0.18-0.361c0.079-0.841,0.681-1.362,1.803-1.562l0.661,0.18
		l0.12-0.241l0.3,0.241c1.563,0.601,2.985,1.382,4.268,2.344l0.361,0.12c0.32,0.481,0.921,1.163,1.803,2.044v0.481
		c0,0.04,0.2,0.24,0.601,0.601c-0.04,0.762,0.181,1.343,0.662,1.743l-0.301,0.36c0.08,0.201,0.22,0.481,0.421,0.842
		c-0.361,0.24-0.481,0.721-0.361,1.442l-0.24,0.181c-0.04,0.24-0.141,0.581-0.301,1.022l0.18,0.42l-0.18,0.301
		c-0.24,0.12-0.562,0.341-0.962,0.661l-0.06,0.421l-0.781,0.121l-0.421,0.601h-0.06c-0.081-0.079-0.181-0.219-0.301-0.42
		l-0.301,0.541c-0.281-0.04-0.521-0.06-0.721-0.06c-0.401,0-0.942,0.161-1.623,0.481l-0.421-0.18
		c-1.283,0.24-2.705,0.782-4.268,1.623c-1.923,1.043-2.966,2.043-3.126,3.005c0.761,0.322,1.763,0.922,3.006,1.803
		c0.52,0.562,1.121,1.383,1.803,2.465c0.12,0.521,0.301,0.862,0.541,1.022c1.322-0.44,2.264-0.58,2.825-0.421l0.06-0.301
		c0.08-0.159,0.201-0.28,0.361-0.361l0.18-0.24c-0.04-0.16-0.04-0.4,0-0.722l0.12-0.18l-0.421-0.601
		c-0.601-0.039-1.503-0.14-2.705-0.3l-0.841,0.24c-0.361-0.159-0.742-0.4-1.142-0.721c0-1.203,0.741-2.124,2.224-2.765
		c1.242-0.321,2.484-0.662,3.727-1.022c1.082-0.32,1.903-0.521,2.464-0.601c0.721,0,1.743-0.08,3.066-0.241
		c0.12,0,0.641-0.16,1.563-0.481c0.641-0.2,1.181-0.301,1.623-0.301c0.16,0,0.541,0.131,1.142,0.391
		c0.601,0.261,1.102,0.391,1.503,0.391c0.32,0.241,0.631,0.481,0.932,0.722C-259.684,514.416-259.534,514.777-259.534,515.258z
		 M-274.562,534.434c-0.081-1.603-0.341-2.886-0.782-3.847c-0.16,0-0.401-0.02-0.721-0.06c-0.321-0.04-0.561-0.061-0.721-0.061
		h-0.781c-0.161,0-0.341,0.04-0.541,0.12c-0.161,1.082-0.421,2.305-0.782,3.667c0.761,0.12,1.924,0.321,3.487,0.601l0.12-0.18
		C-275.124,534.635-274.883,534.554-274.562,534.434z M-273.66,524.876l-0.18-0.421c-0.161-0.04-0.361-0.06-0.601-0.06
		c-2.004,0-3.026,0.882-3.066,2.645v0.421l0.842,0.24c0.361-0.32,1.022-0.481,1.984-0.481c0.08,0,0.2,0.06,0.361,0.18l0.601-0.601
		l-0.12-1.022L-273.66,524.876z M-261.397,501.913c-0.401,0.721-1.022,1.743-1.863,3.066c-0.201,0.28-1.082,1.202-2.645,2.765
		c-0.081,0.081-0.361,0.261-0.842,0.541c-0.201,0.161-0.361,0.481-0.481,0.962l-0.481,0.18c1.523-2.924,2.285-4.888,2.285-5.891
		c0-0.481-0.281-1.122-0.842-1.924c0.04-0.16,0.14-0.44,0.301-0.841c0.481-0.481,0.962-0.722,1.443-0.722
		c1.362,0,2.244,0.341,2.645,1.023v0.3l0.181,0.061l0.12,0.24L-261.397,501.913z M-262.72,538.702l-0.301-0.12l-0.361,0.18
		l-0.12,0.241c0,0.161,0.04,0.301,0.12,0.42L-262.72,538.702z M-252.26,527.641l-0.3,0.12l0.18,0.361l-0.301,0.541l0.06,0.36
		c-0.401,0.481-0.562,0.922-0.481,1.322c-0.12,0.04-0.201,0.04-0.24,0c-0.04-0.039-0.06-0.12-0.06-0.24l-0.06-0.06l0.24-0.542
		l-0.36-0.24l0.12,0.06h0.24l0.12-0.18v-0.12h-0.541l-0.06-0.301l1.082-1.262L-252.26,527.641z M-249.255,521.93
		c-0.201,0.12-0.481,0.421-0.841,0.902c-0.04,0.361-0.12,0.902-0.241,1.623c0.04,0.12,0.099,0.24,0.18,0.36l-0.601-0.18v0.481
		c-0.12,0-0.281,0.021-0.481,0.06c0.04,0.12,0.12,0.221,0.24,0.301c-0.321,0.241-0.682,0.862-1.082,1.864l-0.3-0.18
		c-0.04-0.12-0.06-0.241-0.06-0.361l0.06-0.24c0.12-0.16,0.26-0.26,0.421-0.301l-0.12-0.42c0.16-0.401,0.481-0.962,0.962-1.684
		c0.04,0.04,0.1,0.12,0.181,0.241c0.039-0.2,0.12-0.361,0.24-0.481c0.12-0.12,0.3-0.241,0.541-0.361l-0.18-0.481l0.481-0.601
		l-0.06-0.18l0.06-0.12c0-0.04,0.06-0.099,0.18-0.18l0.12-0.241h0.12L-249.255,521.93z"/>
</g>
<text transform="matrix(1 0 0 1 -209.5863 523.1678)" fill="#FFFFFF" font-family="'ArialMT'" font-size="24">Winter Concert</text>
<text transform="matrix(1 0 0 1 -186.6039 545.8387)" fill="#FFFFFF" font-family="'Osaka'" font-size="14">@ 川西市市民会館</text>
<g opacity="0.2">
	<path fill="#FFFFFF" d="M0.5,472.5v96h-396v-96H0.5 M2.5,470.5h-400v100h400V470.5L2.5,470.5z"/>
</g>
<polyline opacity="0.7" fill="none" stroke="#FFFFFF" stroke-width="2" stroke-miterlimit="10" points="-15.603,512.954 
	-10.292,520.5 -15.603,528.046 "/>
</svg>
