<?xml version="1.0" encoding="utf-8"?>
<!-- Generator: Adobe Illustrator 17.0.2, SVG Export Plug-In . SVG Version: 6.00 Build 0)  -->
<!DOCTYPE svg PUBLIC "-//W3C//DTD SVG 1.1//EN" "http://www.w3.org/Graphics/SVG/1.1/DTD/svg11.dtd">
<svg version="1.1" id="レイヤー_1" xmlns="http://www.w3.org/2000/svg" xmlns:xlink="http://www.w3.org/1999/xlink" x="0px"
	 y="0px" width="400px" height="100px" viewBox="-397.5 470.5 400 100" enable-background="new -397.5 470.5 400 100"
	 xml:space="preserve">
<circle opacity="0.15" fill="none" stroke="#FFFFFF" stroke-width="16" stroke-miterlimit="10" cx="-308.615" cy="520.203" r="24.114"/>
<text transform="matrix(1 0 0 1 -372.3395 525.5255)" fill="#FFFFFF" font-family="'ArialMT'" font-size="16">2013.12</text>
<g>
	<g>
		<path fill="#FFFFFF" d="M-268.717,498.121c0.243,0.733,0.549,1.465,0.854,2.258c0.061,0.244,0.183,0.428,0.365,0.61
			c0.428,0.672,0.55,1.465,0.244,2.38v0.306c1.586-0.488,3.296-0.672,5.004-0.367c0.487,0.183,1.038,0.367,1.525,0.549
			c0.367,0.061,0.733,0.306,1.099,0.61v0.061c1.038,0.549,1.831,1.22,2.503,2.075c0.549,0.549,0.976,1.038,1.342,1.586
			c0.183,0.428,0.428,0.732,0.611,1.099c0.122,0.183,0.183,0.306,0.244,0.489c-0.183,0.487-0.428,0.854-0.733,1.038
			c-0.183,0.121-0.244,0.243-0.244,0.365c0.061,0.183,0,0.367-0.121,0.428c-0.122,0.061-0.244,0.061-0.306-0.061
			c-0.306,0.304-0.61,0.304-0.915,0.122c-0.122,0.061-0.245,0.121-0.428,0.061c-0.183-0.061-0.304-0.061-0.487-0.061
			c-0.183-0.183-0.367-0.245-0.489-0.183c-0.243-0.061-0.426-0.061-0.61,0c0,0,0,0,0-0.061c-0.306-0.061-0.55-0.061-0.854,0
			c-0.428-0.061-0.793-0.245-1.16-0.367c-0.306-0.061-0.549-0.183-0.732-0.365c-0.183-0.183-0.306-0.367-0.489-0.611
			c-0.183-0.061-0.426-0.183-0.61-0.244c-0.428-0.06-0.793-0.06-1.16,0.061c-0.426,0.061-0.793,0.183-1.16,0.367
			c-0.61,0.245-1.16,0.489-1.708,0.732c-0.489,0.244-0.976,0.489-1.464,0.793c0.426,0.245,0.793,0.55,1.036,0.917
			c0.061,0,0.061,0,0.122,0.061c0.244,0.305,0.489,0.549,0.795,0.855c-0.061,0.061-0.122,0.121-0.306,0.121
			c0.183,0.122,0.306,0.245,0.244,0.428c-0.183,0.122-0.244,0.245-0.244,0.428c0,0.182-0.061,0.304-0.122,0.426
			c0.183,0.183,0.306,0.306,0.487,0.428c-0.06,0.061-0.121,0.061-0.182,0c-0.244-0.061-0.428-0.061-0.611,0.061
			c0,0.122-0.061,0.182-0.122,0.122c-0.061,0.182-0.122,0.304-0.122,0.426v-0.122c-0.182,0-0.365,0.061-0.487,0.245
			c-0.183,0.061-0.306,0.183-0.367,0.306c-0.182,0.122-0.243,0.183-0.304,0.243c-0.061,0.061-0.183,0.122-0.244,0.122v-0.061
			c-0.061,0.061-0.061,0.061-0.061,0.061c-0.061,0.061-0.061,0.061-0.122,0.061v-0.061c-0.61,0.061-1.16,0.183-1.708,0.489
			c-0.367,0-0.55,0.122-0.55,0.426c-0.182,0.428-0.365,0.915-0.549,1.343l0.061,0.915c0.671-0.183,1.221-0.367,1.831-0.671
			c1.77-0.611,3.661-0.854,5.492-0.793c1.588,0.061,2.99,0.487,4.211,1.342c0.671,0.55,1.282,1.099,1.892,1.465
			c0.732,0.793,1.465,1.647,2.075,2.501c0.306,0.428,0.549,0.854,0.793,1.343c0.367,0.426,0.428,0.915,0.245,1.403
			c0.061,0.245,0.061,0.428-0.122,0.489c0.061,0.304,0,0.61-0.244,0.854c-0.122,0-0.182,0.061-0.243,0.183
			c-0.122,0.183-0.367,0.304-0.55,0.365c-0.244,0.428-0.487,0.854-0.732,1.404c-0.306,0.428-0.671,0.915-0.976,1.343
			c-0.245,0.243-0.428,0.365-0.732,0.304c-0.061,0.061-0.122,0.061-0.122,0c-0.306,0.122-0.55,0.306-0.732,0.55
			c-0.122,0.061-0.245,0.122-0.367,0.243c-0.671,0.55-1.282,1.038-1.892,1.527c-0.061,0.122-0.183,0.245-0.306,0.367
			c0-0.061,0-0.061-0.061-0.061c-0.426,0.304-0.854,0.487-1.281,0.549c-0.183-0.122-0.367-0.183-0.55-0.122
			c-0.426,0.183-0.793,0.183-1.099,0c-0.549,0.061-0.854,0.245-1.038,0.55c-0.122,0-0.243-0.061-0.304-0.122
			c-0.122,0.122-0.183,0.122-0.244,0c-0.183,0.243-0.183,0.487,0,0.671c0,0.122,0,0.183,0,0.245c-0.183,0-0.306,0-0.428-0.061
			c0,0.061,0,0.061-0.061,0c-0.061,0-0.182,0.061-0.243,0.122c-0.428-0.061-0.795,0-1.038,0.122
			c-1.282,0.304-2.503,0.61-3.722,1.036c-0.183,0.061-0.428,0.122-0.672,0.122c-0.306,0.183-0.61,0.245-0.793,0.183
			c-0.549,0.122-1.038,0.183-1.525,0.245c-0.55,0.306-1.099,0.367-1.71,0.061c-0.243,0.122-0.487,0.183-0.671,0.122
			c-0.306-0.183-0.732-0.306-1.099-0.306c-0.061,0.061-0.183,0.061-0.245,0c-0.304-0.183-0.671-0.306-1.038-0.306
			c-0.06,0-0.121,0-0.182,0c-0.122,0.122-0.245,0.122-0.367,0c-0.183-0.061-0.244-0.243-0.183-0.549
			c-0.122-0.122-0.183-0.245-0.122-0.428c0.183-0.121,0.306-0.304,0.367-0.61c0.061-0.183,0.183-0.367,0.367-0.428
			c0.121,0,0.243-0.061,0.304-0.243c0.367-0.306,0.793-0.672,1.16-0.976c0.55-0.306,1.038-0.734,1.343-1.16
			c0.061-0.428,0.122-0.854,0.182-1.282c-0.487-0.061-0.975-0.122-1.464-0.426c-0.428-0.061-0.915-0.122-1.404-0.183
			c-0.182-0.061-0.304-0.061-0.426-0.122c-0.122-0.183-0.244-0.428-0.306-0.671c-0.061-0.061-0.122-0.061-0.183-0.061
			c0.061-0.061,0.122-0.061,0.183-0.122c-0.061-0.061-0.061-0.061-0.061-0.122c0.061,0,0.122-0.061,0.183-0.183v-0.061
			c0.061,0.061,0.061,0,0.061-0.061v-0.122c0.061,0.122,0.122,0.122,0.122-0.061v-0.182c0.183,0.061,0.367,0,0.426-0.122
			c-0.06-0.061-0.06-0.061-0.06-0.122c0.06,0.122,0.182,0.122,0.243,0c-0.061-0.061-0.061-0.061-0.061-0.061
			c0.061,0.061,0.183,0.061,0.245,0c0-0.061-0.061-0.122-0.122-0.183c0.061,0.061,0.061,0.122,0.122,0.061
			c0.061-0.061,0.061-0.122,0.061-0.244c0,0.061,0.061,0.061,0.122,0c0.061,0.061,0.122,0,0.061-0.122h0.122
			c0.122-0.06,0.243-0.182,0.304-0.304c-0.061,0,0.122-0.061,0.367-0.183c0.306-0.061,0.732-0.367,1.221-0.793
			c-0.061-0.793-0.061-1.649-0.122-2.564c-0.428,0.306-0.854,0.611-1.16,1.038c-0.306,0-0.487-0.061-0.671-0.243v-0.061
			c-0.061-0.061-0.122-0.122-0.122-0.245c0.365-0.306,0.732-0.61,0.976-0.915c-0.061,0-0.061,0-0.061-0.061h0.122
			c0.549-0.245,0.915-0.671,1.099-1.343c-0.061-1.464,0.182-2.868,0.671-4.21v-0.306c-1.464,0.426-2.746,1.099-3.906,2.014
			c-1.708,1.342-3.296,2.807-4.882,4.15c-0.306,0.243-0.428,0.487-0.367,0.793c0.122,0.426,0.245,0.793,0.428,1.16
			c0.061,0.365,0.183,0.732,0.367,1.036c-0.061,0.183,0,0.306,0.06,0.428c0,0.061,0,0.061,0.061,0.122
			c0.061-0.183,0.245-0.306,0.489-0.489c-0.061,0-0.061,0-0.061-0.061c0.428-0.365,0.793-0.793,1.282-1.281
			c0.243-0.306,0.487-0.611,0.732-0.915c0.061-0.061,0.183-0.183,0.306-0.306c-0.061,0-0.061,0-0.061-0.061l0.061-0.061
			c-0.061,0.061-0.061,0.061-0.061,0.061c0,0.061,0,0.061,0.061,0.061c0.182-0.306,0.426-0.549,0.671-0.793c0,0,0,0,0.061-0.061
			c-0.061,0-0.061,0-0.061,0l0.122-0.061c0-0.061,0-0.061,0.061-0.122h-0.061c0.061,0.061,0.061,0.122,0.122,0.122l0.061-0.122
			c0,0-0.061,0-0.061-0.061c0.061,0,0.061,0,0.061-0.061v0.061l0.121-0.061c-0.549,0.854-1.158,1.649-1.708,2.32
			c-0.365,0.671-0.793,1.282-1.219,1.831c-0.183,0.306-0.428,0.61-0.611,0.793c-0.183,0.245-0.245,0.428-0.122,0.671
			c0.306,0.489,0.672,0.978,1.038,1.404c0.671,1.586,1.708,2.807,3.113,3.661c0.245-0.122,0.549-0.122,0.854,0.061h0.061
			c-0.245,0.183-0.487,0.306-0.793,0.367c-0.183,0.306-0.367,0.549-0.55,0.854c-0.182,0.122-0.304,0.245-0.365,0.428
			c-0.061,0.182-0.245,0.365-0.428,0.426c-0.183,0.367-0.487,0.489-0.793,0.367c-1.77-0.854-3.235-2.197-4.334-3.906
			c-0.121-0.245-0.304-0.489-0.487-0.732c-1.282,1.708-2.563,3.478-3.967,5.186c-0.244,0.489-0.549,0.976-0.793,1.465
			c-0.55,0.793-1.038,1.647-1.465,2.563c-0.365,0.671-0.854,1.343-1.403,2.014c-0.489,0.732-1.038,1.343-1.527,1.892
			c-0.182,0-0.304,0.061-0.365,0.183c-0.122,0.426-0.306,0.732-0.55,0.976c-0.243,0-0.426,0-0.61-0.061
			c-0.732,0.061-1.221-0.183-1.647-0.671c-0.428-0.306-0.733-0.733-1.038-1.16c-0.183,0-0.245-0.061-0.306-0.183
			c-0.183-0.61-0.244-1.282-0.183-2.075c-0.365-4.028-0.183-8.117,0.671-12.205c0.306-3.235,0.795-6.47,1.404-9.826
			c0.061-1.038,0.245-1.892,0.732-2.807c-0.061,0-0.061-0.061-0.061-0.122c0.061,0.061,0.061,0.061,0.122,0.061
			c0.061-0.183,0.061-0.367,0.122-0.55c-0.061,0.061,0,0.122,0.061,0.122c0-0.183,0.061-0.245,0.245-0.245
			c0-0.182,0.122-0.304,0.306-0.426c0.06-0.244,0.121-0.611,0.06-0.915c0.367-1.404,0.856-2.808,1.465-4.212
			c0.245-2.136,0.367-4.273,0.367-6.469c0-0.183-0.061-0.366-0.183-0.671c0.061,0.06,0.183,0.06,0.304,0.06v-0.244h0.061v-0.305
			h0.122c0-0.061-0.061-0.061-0.122-0.122c0.122-0.061,0.245-0.061,0.428-0.061c0-0.061-0.061-0.183-0.183-0.245
			c0.122,0.061,0.244,0.122,0.428,0.122c0,0,0-0.061,0-0.122c-0.061,0-0.122-0.06-0.122-0.121h0.183c0-0.061,0-0.183,0.061-0.306
			c0.06,0.061,0.121,0.122,0.182,0.061c0.061,0.061,0.061,0,0.061-0.061c0.061,0.061,0.183,0.061,0.306,0
			c-0.122-0.183-0.183-0.305-0.183-0.488c0.122,0.061,0.245-0.061,0.428-0.305h0.183c-0.061-0.061,0-0.122,0.121-0.183
			c-0.06,0-0.121-0.06-0.121-0.183c0.182,0.122,0.365,0.061,0.487-0.122c-0.061,0-0.122-0.061-0.061-0.122
			c0.183,0.061,0.367,0.061,0.428,0c0.304-0.122,0.549-0.122,0.854,0.061c0.306,0.245,0.671,0.488,0.915,0.733
			c0.915,0.61,1.831,1.281,2.563,2.135c0.428,0.549,0.672,1.221,0.733,1.892c-0.183,0.367-0.183,0.793-0.122,1.221
			c0,0.183,0,0.306,0.061,0.426c0,0.55-0.183,0.856-0.55,1.038c-0.061,0.061-0.122,0.122-0.183,0.183c-0.061,0-0.061,0-0.061-0.061
			c-0.061,0.245-0.182,0.489-0.304,0.672c-0.367,0.304-0.733,0.487-1.038,0.671c-0.244,0.549-0.611,0.793-1.099,0.793v-0.061
			c-0.244,0.428-0.55,0.611-0.976,0.611v-0.061l-0.122,0.061c-0.061-0.061-0.122-0.122-0.183-0.183
			c-0.306,0.183-0.549,0.304-0.854,0.365c-0.426,0-0.732,0.183-1.038,0.55c-0.671,0.733-1.403,1.342-2.075,1.954
			c-0.304,0.365-0.365,0.793-0.245,1.221c0.183,0.06,0.306,0.121,0.428,0.304c0.183,0.915,0.428,1.892,0.61,2.807
			c0.061,0.306,0,0.611-0.182,0.915c-0.061,0.367-0.122,0.733-0.183,1.16c-0.061,0.306-0.183,0.489-0.367,0.55
			c-0.122,0.549-0.245,1.099-0.426,1.647c-0.428,0.854-0.795,1.708-1.099,2.685c-0.306,1.588-0.489,3.235-0.611,4.699
			c0.061,0.183,0.061,0.306,0,0.428c-0.426,1.953-0.61,3.967-0.61,5.981c0,0.183,0,0.365,0,0.549v-0.061
			c0.122,1.343,0.306,2.625,0.732,3.906c0.489-0.243,0.976-0.549,1.465-0.854c2.501-2.196,4.882-4.577,7.139-7.139
			c-0.06,0-0.06,0,0-0.061c0.061,0,0.061,0,0.122-0.061v-0.061h0.061c0.55-0.611,1.038-1.282,1.588-1.892
			c-0.55-1.527-0.795-3.113-0.795-4.76c0-0.428,0.244-0.917,0.55-1.343c0.183-0.183,0.244-0.367,0.244-0.61
			c0.122-0.061,0.304-0.183,0.487-0.306c0-0.061,0-0.061,0.061-0.061s0.122,0,0.183,0.061c0.061-0.183,0.122-0.245,0.244-0.428
			c0.365,0.183,0.732,0.122,0.976-0.061h0.243c2.381-2.075,4.821-3.967,7.385-5.798c-0.428-0.183-0.854-0.365-1.282-0.549
			c-0.487-0.183-0.976-0.183-1.403,0c-0.061-0.306-0.122-0.61-0.367-0.854c0.061-0.061,0.183-0.061,0.306-0.122
			c-0.061-0.061-0.122-0.061-0.122-0.122c0.061,0,0.061-0.061,0.122-0.122c-0.061,0.061-0.061,0-0.122-0.061
			c0.061,0,0.061-0.061,0.122-0.122c0,0,0.121-0.061,0.182-0.122c0.061-0.061,0.122-0.061,0.183-0.121v-0.061
			c0.061-0.061,0.183-0.122,0.306-0.183c-0.061-0.061-0.061-0.061-0.061-0.122c0.061,0,0.183-0.061,0.245-0.245v-0.061
			c0.061,0.061,0.183,0,0.245-0.122c0.549-0.426,1.219-0.732,1.892-1.038c0.732-0.365,1.525-0.732,2.318-1.098
			c0.367-0.489,0.793-0.856,1.282-1.099c0.122-0.122,0.306-0.245,0.487-0.367c0.245-0.061,0.489-0.183,0.611-0.426
			c0,0.06,0.061,0.06,0.122,0c0.182,0,0.365-0.122,0.426-0.306c-0.061,0-0.061,0-0.122-0.061c0.061,0,0.122,0,0.245,0h0.061
			c-0.061,0.061-0.061,0.061,0,0.122c0,0.061,0.061,0.061,0.122,0.061l-0.061-0.183c0.306,0.122,0.549,0.061,0.732-0.122
			c0.183-0.061,0.428-0.061,0.671,0c0.061,0.245,0.245,0.428,0.428,0.489c0.183,0,0.306,0,0.489,0
			c0.304,0.182,0.671,0.304,0.976,0.365h0.121c1.953-0.976,3.724-2.258,5.371-3.784c0.183-0.245,0.245-0.487,0.183-0.793
			c-0.061-0.183-0.183-0.245-0.367-0.306c-0.183,0.061-0.365,0.183-0.549,0.244c-1.099,0.245-2.136,0.367-3.174,0.426
			c-0.428,0.183-0.732,0.183-1.038,0.122c-1.099,0.122-2.197,0.245-3.235,0.428c-0.304,0.183-0.671,0.306-1.038,0.426
			c-0.976,0.672-2.014,1.038-3.111,1.343c-0.306,0.183-0.55,0.306-0.795,0.428c-1.403,0.182-2.746,0.426-4.088,0.732
			c-0.122-0.061-0.122-0.245-0.061-0.428c0-0.061,0.121-0.122,0.243-0.183c-0.122-0.06-0.182-0.06-0.182-0.121
			c0.182-0.061,0.426-0.183,0.61-0.306c-0.061-0.061-0.061-0.061-0.061-0.061c0.183-0.061,0.428-0.245,0.671-0.549
			c0.733-0.245,1.404-0.55,2.136-0.917c0.915-0.426,1.708-0.915,2.624-1.464c-0.061-0.061-0.121-0.061-0.121-0.122
			c-0.061,0-0.183,0-0.245-0.061c-0.061-0.244-0.183-0.427-0.489-0.549c-0.243,0-0.487-0.122-0.671-0.428
			c-0.183-0.305-0.367-0.366-0.671-0.305c-0.55,0.427-1.221,0.672-1.953,0.733c-0.061-0.061-0.122-0.122-0.122-0.245
			c0.671-0.427,1.342-0.854,2.136-1.404c0.549-0.976,0.793-2.075,0.61-3.234c-0.183-0.306-0.428-0.549-0.793-0.733
			c-0.428-0.427-0.793-0.976-1.16-1.587c0.061,0.061,0.183,0.122,0.367,0.122c-0.122-0.061-0.183-0.122-0.183-0.183
			c-0.061,0-0.122,0-0.061-0.061c0.061-0.06,0.183-0.06,0.367,0c0.06-0.06,0-0.183-0.061-0.305c0.061,0.061,0.121,0.122,0.182,0.122
			c-0.304-0.305-0.426-0.549-0.243-0.794c0-0.06,0-0.121-0.061-0.183c0.304-0.061,0.487-0.305,0.549-0.61
			c0.122-0.061,0.245-0.122,0.306-0.244c0.244-0.183,0.426-0.306,0.61-0.488c0.611-0.428,1.221-0.855,1.953-1.16
			c0.244-0.183,0.55-0.305,0.854-0.366c0.55,0.061,1.099,0.183,1.649,0.427C-271.097,495.558-269.754,496.656-268.717,498.121z
			 M-281.471,537.79v-0.061c-0.122,0.183-0.183,0.306-0.245,0.487c0,0.061,0,0.061-0.061,0.122c-0.183,0.183-0.367,0.367-0.549,0.55
			c-0.55,0.304-0.976,0.671-1.282,1.099c-0.122,0.061-0.183,0.061-0.245,0.122c-0.793,0.671-1.464,1.403-2.014,2.135
			c0.244,0.183,0.306,0.367,0.244,0.55c-0.061,0.122-0.183,0.243-0.244,0.304c-0.061,0.183-0.061,0.306,0.061,0.367
			c-0.183,0.061-0.183,0.183,0,0.367c0.061,0.243,0.061,0.365-0.122,0.549c-0.061,0.306-0.122,0.55-0.122,0.732
			c-0.61,1.16-1.525,1.953-2.563,2.625c-0.122,0.304-0.306,0.365-0.549,0.243c-0.489,0-0.915,0.122-1.282,0.367
			c-0.306-0.245-0.489-0.549-0.611-0.854c-0.426-0.245-0.61-0.61-0.732-0.976h-0.061c-0.122-0.367-0.182-0.732-0.182-1.16
			c-0.183-0.183-0.244-0.367-0.244-0.549c-0.122-0.306-0.306-0.55-0.55-0.793l0.122-0.061c0,0.061,0,0.121-0.061,0.121
			c0.061,0.061,0.183,0.122,0.367,0.122c0.061-0.122,0.061-0.304,0.122-0.549c0.061,0.061,0.122,0.061,0.183,0.061
			c0-0.061-0.061-0.122-0.122-0.183c-0.061-0.061-0.061-0.061,0-0.061c0.061,0.061,0.122,0.061,0.183,0.122
			c0.06,0,0.121-0.061,0.121-0.122c0.061-0.183,0.061-0.367,0-0.549c0.061-0.183,0.122-0.367,0.245-0.55
			c0.183-0.183,0.428-0.487,0.61-0.793c0.367-0.122,0.733-0.183,1.099-0.122c0.183-0.061,0.306-0.061,0.489,0
			c1.282-0.549,2.563-1.16,3.784-1.953c1.404-0.61,2.746-1.221,4.15-1.831C-281.594,537.729-281.594,537.79-281.471,537.79z
			 M-284.584,511.242c0.061,0.061,0.122,0.061,0.183,0.122h0.122c-0.061,0.122,0,0.245,0.121,0.306
			c0.183-0.061,0.244-0.122,0.428-0.122h0.061c0.061,0,0.061,0,0.061,0v0.122c-0.489,0.182-0.854,0.487-1.099,0.854
			c-0.061,2.198-0.367,4.272-1.038,6.347c-0.061,0.122-0.061,0.245-0.061,0.428c-0.183,0.183-0.306,0.304-0.306,0.487
			c-0.182,0.061-0.243,0.183-0.182,0.367c-0.245,0-0.367,0.122-0.489,0.306c0.061,0.061,0.061,0.122,0.061,0.182
			c0,0.061,0,0.122-0.061,0.183c-0.122,0-0.183,0-0.244-0.061c-0.061,0.061-0.061,0.122-0.061,0.183
			c-0.121,0.061-0.243-0.061-0.304-0.245c-0.061-0.061-0.122-0.121-0.183-0.182c-0.245,0.061-0.428,0-0.489-0.306
			c-0.304-0.183-0.549-0.367-0.732-0.55c-0.183-0.182-0.244-0.426-0.306-0.732c-0.304-0.365-0.549-0.793-0.61-1.282
			c-0.122-0.549-0.306-1.036-0.549-1.403c0.061-0.306,0.122-0.671,0.243-0.976c-0.06-0.183,0.061-0.367,0.245-0.428
			c0.306-0.549,0.671-1.038,1.038-1.464c0.55-0.855,1.038-1.709,1.586-2.563c0.611-0.795,1.282-1.649,1.953-2.442h0.061
			c0.061,0.061,0.122,0,0.245-0.061c0-0.061,0-0.061,0.061-0.122v0.061c0.122-0.061,0.244-0.183,0.306-0.306
			c0.061,0.306,0.183,0.55,0.426,0.672C-284.279,509.534-284.462,510.388-284.584,511.242z M-261.088,540.353
			c0.732,0.489,1.586,0.976,2.44,1.465c1.099,0.732,2.075,1.586,2.929,2.501c0.672,0.55,1.16,1.16,1.527,1.953
			c0.183,0.489,0.304,0.976,0.304,1.527c-0.182,0.426-0.426,0.793-0.732,1.097c-0.549,0.428-1.16,0.489-1.647,0.245
			c-0.306,0.061-0.61,0.061-0.976,0.122c-0.367-0.061-0.732-0.061-1.16-0.061c-0.122-0.183-0.245-0.306-0.367-0.487
			c-0.487,0.182-0.976,0.122-1.525-0.061c-0.122-0.061-0.244-0.061-0.367-0.122c-0.426,0.183-0.732,0.122-1.038-0.061
			c-0.061,0.061-0.121,0.061-0.182,0c-0.061,0.122-0.122,0.183-0.183,0.122c-0.122-0.183-0.367-0.245-0.671-0.245v-0.061
			c-0.428-0.061-0.795-0.122-1.16-0.183c-0.428,0.061-0.793,0.122-1.099,0.183c-0.061,0.061-0.061,0.061,0,0.061h-0.061
			c-0.061,0-0.061,0,0,0c-0.061,0.061-0.183,0.122-0.244,0.061c-0.061,0.061-0.061,0.061-0.122,0.061
			c-0.183,0.061-0.365,0.061-0.549,0c-0.245,0.122-0.489,0.245-0.793,0.306c-0.061-0.061-0.061-0.122,0-0.183
			c0.915-0.183,1.831-0.428,2.746-0.793c-0.061-0.061-0.122-0.122-0.183-0.183c0.061-0.061,0-0.061-0.061-0.122
			c-0.061,0.122-0.183,0.183-0.245,0.122c-0.061-0.122-0.182-0.183-0.304-0.122c-0.061,0.061-0.061,0.061-0.061,0.122
			c-0.061,0.061,0,0.061,0.061,0c-0.122,0.061-0.183,0.122-0.245,0.122s-0.061,0-0.061-0.061c0.061,0,0.061-0.061,0.122-0.122v0.061
			l0.061-0.061c-0.245-0.061-0.489-0.061-0.793,0c-0.061,0.122,0,0.183,0.121,0.122c-0.121,0.122-0.243,0.122-0.365,0.061v-0.122
			c-0.061,0.061-0.122,0.122-0.183,0.183c0,0.061,0,0.061,0.061,0.061c-0.061,0-0.061,0-0.122,0v0.061
			c-0.183-0.061-0.367-0.122-0.549-0.122c-0.061,0.061-0.061,0.122,0,0.122c-0.122-0.061-0.183,0-0.183,0.06
			c0,0.061,0,0.061,0.061,0c-0.061,0.061-0.122,0-0.122-0.06c-0.061,0.06-0.061,0.06-0.061,0c-0.671,0.182-1.282,0.365-1.892,0.549
			c-0.183,0-0.367,0-0.489,0c-0.182,0.122-0.304,0.183-0.487,0.183h-0.061c-0.183-0.061-0.306-0.122-0.489-0.183
			c0.122,0.061,0.245,0.061,0.367,0c-0.061-0.061-0.061-0.061-0.122-0.061c-0.245,0.061-0.487,0.061-0.671,0.122
			c-0.061,0.061-0.061,0.061-0.061,0.122v-0.122c-0.183,0.122-0.306,0.183-0.428,0.122h-0.061c-0.061,0.061-0.182,0.122-0.243,0.183
			l0.061-0.061c-0.244,0.182-0.489,0.243-0.672,0.304c0.061,0,0.122-0.061,0.183-0.122c0.122,0,0.245-0.061,0.428-0.182
			c-0.122-0.061-0.245-0.122-0.306-0.061c0.732-0.183,1.465-0.489,2.136-0.915c0,0.061,0,0.061,0.061,0.061
			c0.061-0.061,0.122-0.122,0.243-0.122l0.061-0.061v-0.061c0.061-0.061,0.183-0.061,0.306-0.061c0.183,0,0.306-0.061,0.428-0.183
			c0,0,0,0-0.061-0.061c0.122-0.061,0.365-0.183,0.61-0.367h0.061c0.122,0,0.183-0.06,0.183-0.121
			c1.647-0.611,2.563-1.771,2.929-3.357c0.061-0.487,0-0.915-0.244-1.221c-0.793-0.61-1.525-1.16-2.44-1.77
			c-0.306-0.061-0.611-0.122-0.915-0.245c-1.099-0.365-2.259-0.487-3.357-0.426c-0.549,0.122-1.038,0.245-1.586,0.306v-0.061
			l-0.183,0.061c0.061,0,0.061-0.061,0.122-0.122c-0.061,0.061-0.061,0.061-0.061,0l0.061-0.122c-0.061,0-0.122,0-0.122-0.061
			c0.061-0.061,0.183-0.122,0.304-0.245c0.061-0.061,0.122-0.061,0.306-0.061c1.831-0.732,3.722-1.038,5.675-0.854
			c0.733,0.061,1.465,0.183,2.258,0.367C-263.834,539.315-262.493,539.804-261.088,540.353z M-271.768,521.313
			c-0.122,0.426-0.183,0.915-0.245,1.403c0.183,0.245,0.245,0.55,0.122,0.854c1.343,0.306,2.563,1.038,3.478,2.197
			c0.061,0.183,0.061,0.367,0,0.489c-0.061,0-0.061,0-0.061-0.061c0,0.061,0,0.122,0.061,0.122c0,0.061,0,0.182-0.061,0.243
			c-0.243,0.428-0.61,0.854-0.976,1.282c-0.061,0.183-0.122,0.306-0.182,0.367c-0.061,0.183-0.183,0.304-0.367,0.243
			c-0.306,0.122-0.549,0.306-0.671,0.489c-0.122,0.306-0.183,0.61-0.122,0.915h-0.061c0,0.061,0,0.061,0.061,0.061
			c-0.183,0.183-0.428,0.245-0.611,0.245c-0.061,0.183-0.182,0.365-0.304,0.426c-0.122,0.489-0.122,0.915,0,1.404
			c0.182-0.122,0.182-0.244,0.122-0.367c0.06,0,0.121,0,0.182-0.061c0.244-0.122,0.55-0.183,0.856-0.244
			c0.304,0,0.549,0.061,0.793,0.122c0.182,0.122,0.365,0.122,0.549,0c0,0.061,0,0.061,0.061,0.061
			c0.428-0.243,0.732-0.671,1.16-1.219c1.77-1.832,2.807-4.028,3.235-6.531c0.243-0.977,0.061-1.77-0.55-2.44
			c-0.671-0.489-1.342-0.732-2.197-0.672C-268.961,520.52-270.427,520.763-271.768,521.313z"/>
	</g>
</g>
<text transform="matrix(1 0 0 1 -209.5863 523.1678)" fill="#FFFFFF" font-family="'ArialMT'" font-size="24">Winter Concert</text>
<text transform="matrix(1 0 0 1 -179.6039 545.8387)" fill="#FFFFFF" font-family="'Osaka'" font-size="14">@ 高槻現代劇場</text>
<g opacity="0.2">
	<path fill="#FFFFFF" d="M0.5,472.5v96h-396v-96H0.5 M2.5,470.5h-400v100h400V470.5L2.5,470.5z"/>
</g>
<polyline opacity="0.7" fill="none" stroke="#FFFFFF" stroke-width="2" stroke-miterlimit="10" points="-15.603,512.954 
	-10.292,520.5 -15.603,528.046 "/>
</svg>
