<?xml version="1.0" encoding="utf-8"?>
<!-- Generator: Adobe Illustrator 17.0.2, SVG Export Plug-In . SVG Version: 6.00 Build 0)  -->
<!DOCTYPE svg PUBLIC "-//W3C//DTD SVG 1.1//EN" "http://www.w3.org/Graphics/SVG/1.1/DTD/svg11.dtd">
<svg version="1.1" id="レイヤー_1" xmlns="http://www.w3.org/2000/svg" xmlns:xlink="http://www.w3.org/1999/xlink" x="0px"
	 y="0px" width="500px" height="500px" viewBox="0 0 500 500" style="enable-background:new 0 0 500 500;" xml:space="preserve">
<path style="fill:#FFFFFF;" d="M375.867,23.01c-2.688,0-5.135,2.18-5.445,4.848L362.8,93.939c-0.307,2.667-0.666,4.848-0.8,4.848
	c-0.137,0-0.496,2.18-0.8,4.847l-0.927,8.048c-0.313,2.668,1.631,4.848,4.321,4.848h18.627c2.684,0,5.131-2.18,5.438-4.848
	l0.464-3.967c0.303-2.667,2.754-4.848,5.441-4.848h72.793c2.684,0,5.135-2.187,5.438-4.854l8.095-70.156
	c0.311-2.668-1.64-4.848-4.321-4.848L375.867,23.01L375.867,23.01z M175.442,364.979c-0.303,2.668,1.641,4.848,4.322,4.848h65.408
	c2.683,0,5.134-2.18,5.441-4.848l4.565-39.582c0.31-2.668-1.637-4.855-4.324-4.855H185.45c-2.684,0-5.131,2.187-5.441,4.855
	L175.442,364.979z M404.763,132.168c-0.31,2.668-2.757,4.855-5.441,4.855h-35.004c-2.684,0-5.135,2.18-5.441,4.847l-10.396,90.114
	c-0.307,2.667-2.757,4.861-5.444,4.861h-16.961c-2.684,0-4.631-2.194-4.321-4.861l0.983-8.555c0.31-2.674-1.637-4.855-4.324-4.855
	h-13.299c-2.691,0-5.135,2.181-5.445,4.855l-0.987,8.555c-0.307,2.667-2.761,4.861-5.445,4.861h-98.525
	c-2.687,0-5.111,2.18-5.391,4.854l-5.815,55.613c-0.277,2.674,1.691,4.861,4.381,4.861h81.765c2.684,0,4.588,2.174,4.227,4.834
	l-3.354,24.672c-0.36,2.66,1.537,4.841,4.225,4.841h39.339c2.684,0,5.135-2.187,5.438-4.855l2.254-19.511
	c0.307-2.667,2.757-4.848,5.441-4.848H392.1c2.684,0,4.634,2.181,4.324,4.848l-1.133,9.822c-0.31,2.667,1.637,4.847,4.321,4.847
	h13.307c2.68,0,5.134-2.18,5.441-4.847l22.526-195.27c0.31-2.667-1.637-4.847-4.322-4.847h-25.729c-2.684,0-5.135,2.18-5.441,4.847
	L404.763,132.168z M73.853,291.81c-0.303,2.667,1.64,4.848,4.328,4.848h22.178c2.684,0,4.628,2.187,4.324,4.847l-7.325,63.474
	c-0.303,2.668,1.637,4.848,4.324,4.848h50.571c2.688,0,5.131-2.18,5.441-4.848l14.283-123.807c0.31-2.667-1.637-4.848-4.324-4.848
	H85.138c-2.687,0-5.134,2.181-5.444,4.848L73.853,291.81z M65.201,366.833c-0.31,2.674,1.634,4.855,4.321,4.855h13.307
	c2.687,0,5.134-2.181,5.444-4.855l3.998-34.661c0.307-2.667-1.641-4.854-4.321-4.854H74.643c-2.69,0-5.134,2.187-5.444,4.854
	L65.201,366.833z M19.107,478.633c-0.279,2.405,1.473,4.377,3.899,4.377h11.991c2.422,0,4.632-1.972,4.909-4.377l3.607-31.249
	c0.276-2.405-1.482-4.377-3.899-4.377H27.617c-2.42,0-4.629,1.972-4.906,4.377L19.107,478.633z"/>
<path style="fill:#FFFFFF;" d="M375.867,23.01c-2.688,0-5.135,2.18-5.445,4.848L362.8,93.939c-0.307,2.667-0.666,4.848-0.8,4.848
	c-0.137,0-0.496,2.18-0.8,4.847l-0.927,8.048c-0.313,2.668,1.631,4.848,4.321,4.848h18.627c2.684,0,5.131-2.18,5.438-4.848
	l0.464-3.967c0.303-2.667,2.754-4.848,5.441-4.848h72.793c2.684,0,5.135-2.187,5.438-4.854l8.095-70.156
	c0.311-2.668-1.64-4.848-4.321-4.848L375.867,23.01L375.867,23.01z M175.442,364.979c-0.303,2.668,1.641,4.848,4.322,4.848h65.408
	c2.683,0,5.134-2.18,5.441-4.848l4.565-39.582c0.31-2.668-1.637-4.855-4.324-4.855H185.45c-2.684,0-5.131,2.187-5.441,4.855
	L175.442,364.979z M404.763,132.168c-0.31,2.668-2.757,4.855-5.441,4.855h-35.004c-2.684,0-5.135,2.18-5.441,4.847l-10.396,90.114
	c-0.307,2.667-2.757,4.861-5.444,4.861h-16.961c-2.684,0-4.631-2.194-4.321-4.861l0.983-8.555c0.31-2.674-1.637-4.855-4.324-4.855
	h-13.299c-2.691,0-5.135,2.181-5.445,4.855l-0.987,8.555c-0.307,2.667-2.761,4.861-5.445,4.861h-98.525
	c-2.687,0-5.111,2.18-5.391,4.854l-5.815,55.613c-0.277,2.674,1.691,4.861,4.381,4.861h81.765c2.684,0,4.588,2.174,4.227,4.834
	l-3.354,24.672c-0.36,2.66,1.537,4.841,4.225,4.841h39.339c2.684,0,5.135-2.187,5.438-4.855l2.254-19.511
	c0.307-2.667,2.757-4.848,5.441-4.848H392.1c2.684,0,4.634,2.181,4.324,4.848l-1.133,9.822c-0.31,2.667,1.637,4.847,4.321,4.847
	h13.307c2.68,0,5.134-2.18,5.441-4.847l22.526-195.27c0.31-2.667-1.637-4.847-4.322-4.847h-25.729c-2.684,0-5.135,2.18-5.441,4.847
	L404.763,132.168z M73.853,291.81c-0.303,2.667,1.64,4.848,4.328,4.848h22.178c2.684,0,4.628,2.187,4.324,4.847l-7.325,63.474
	c-0.303,2.668,1.637,4.848,4.324,4.848h50.571c2.688,0,5.131-2.18,5.441-4.848l14.283-123.807c0.31-2.667-1.637-4.848-4.324-4.848
	H85.138c-2.687,0-5.134,2.181-5.444,4.848L73.853,291.81z M65.201,366.833c-0.31,2.674,1.634,4.855,4.321,4.855h13.307
	c2.687,0,5.134-2.181,5.444-4.855l3.998-34.661c0.307-2.667-1.641-4.854-4.321-4.854H74.643c-2.69,0-5.134,2.187-5.444,4.854
	L65.201,366.833z M19.107,478.633c-0.279,2.405,1.473,4.377,3.899,4.377h11.991c2.422,0,4.632-1.972,4.909-4.377l3.607-31.249
	c0.276-2.405-1.482-4.377-3.899-4.377H27.617c-2.42,0-4.629,1.972-4.906,4.377L19.107,478.633z"/>
<g id="レイヤー_2">
</g>
<circle style="fill:#00B3EF;" cx="247.221" cy="294.472" r="4.662"/>
<circle style="fill:#00B3EF;" cx="263.182" cy="287.956" r="4.662"/>
<circle style="fill:#00B3EF;" cx="277.153" cy="245.785" r="4.662"/>
<circle style="fill:#00B3EF;" cx="276.952" cy="294.694" r="4.662"/>
<circle style="fill:#00B3EF;" cx="304.493" cy="308.17" r="4.662"/>
<circle style="fill:#00B3EF;" cx="290.723" cy="301.432" r="4.662"/>
<circle style="fill:#00B3EF;" cx="280.107" cy="327.942" r="4.662"/>
<g>
	
		<text transform="matrix(1 0 0 1 116.7532 145.7798)" style="fill:#FFFFFF; font-family: Osaka; font-size:17;">舞鶴</text>
	
		<text transform="matrix(1 0 0 1 116.7531 175.8726)" style="fill:#FFFFFF; font-family: Osaka; font-size:17;">神戸</text>
	
		<text transform="matrix(1 0 0 1 116.7533 205.9653)" style="fill:#FFFFFF; font-family: Osaka; font-size:17;">明石</text>
	
		<text transform="matrix(1 0 0 1 391.1272 364.1445)" style="fill:#FFFFFF; font-family: Osaka; font-size:17;">近大</text>
	
		<text transform="matrix(1 0 0 1 391.1266 394.2371)" style="fill:#FFFFFF; font-family: Osaka; font-size:17;">奈良</text>
	
		<text transform="matrix(1 0 0 1 391.1266 424.3301)" style="fill:#FFFFFF; font-family: Osaka; font-size:17;">府大</text>
	
		<text transform="matrix(1 0 0 1 373.1266 454.4226)" style="fill:#FFFFFF; font-family: Osaka; font-size:17;">和歌山</text>
</g>
<g>
	<path style="fill:none;stroke:#00B3EF;stroke-miterlimit:10;" d="M318.49,334.21l-13.997-26.04L318.49,334.21"/>
	<polyline style="fill:none;stroke:#00B3EF;stroke-miterlimit:10;" points="309.584,336.52 290.723,301.432 309.584,336.52 	"/>
	<polyline style="fill:none;stroke:#00B3EF;stroke-miterlimit:10;" points="299.554,336.52 276.952,294.472 299.554,336.52 	"/>
	<polyline style="fill:none;stroke:#00B3EF;stroke-miterlimit:10;" points="284.718,336.52 280.107,327.942 284.718,336.52 	"/>
	<polyline style="fill:none;stroke:#00B3EF;stroke-miterlimit:10;" points="216.126,236.845 247.221,294.694 216.126,236.845 	"/>
	<polyline style="fill:none;stroke:#00B3EF;stroke-miterlimit:10;" points="235.709,236.845 263.182,287.956 235.709,236.845 	"/>
	<polyline style="fill:none;stroke:#00B3EF;stroke-miterlimit:10;" points="272.348,236.845 277.153,245.785 272.348,236.845 	"/>
</g>
<line style="fill:#FFFFFF;" x1="351.018" y1="459.863" x2="284.718" y2="336.52"/>
<line style="fill:#FFFFFF;" x1="349.678" y1="429.771" x2="299.554" y2="336.52"/>
<g>
	<polyline style="fill:none;stroke:#FFFFFF;stroke-miterlimit:10;" points="284.718,336.52 351.018,459.863 427.127,459.863 	"/>
	<polyline style="fill:none;stroke:#FFFFFF;stroke-miterlimit:10;" points="299.554,336.52 349.678,429.771 427.127,429.771 	"/>
	<polyline style="fill:none;stroke:#FFFFFF;stroke-miterlimit:10;" points="427.127,399.678 343.532,399.678 309.584,336.52 	"/>
	<polyline style="fill:none;stroke:#FFFFFF;stroke-miterlimit:10;" points="309.584,336.52 343.532,399.678 427.127,399.678 	"/>
	<path style="fill:none;stroke:#FFFFFF;stroke-miterlimit:10;" d="M427.127,369.585h-89.622L318.49,334.21"/>
	<path style="fill:none;stroke:#FFFFFF;stroke-miterlimit:10;" d="M318.49,334.21l19.015,35.375h89.622"/>
	<polyline style="fill:none;stroke:#FFFFFF;stroke-miterlimit:10;" points="272.348,236.845 226.122,150.848 116.753,150.848 
		226.122,150.848 272.348,236.845 	"/>
	<polyline style="fill:none;stroke:#FFFFFF;stroke-miterlimit:10;" points="235.709,236.845 205.659,180.94 116.753,180.94 
		205.659,180.94 235.709,236.845 	"/>
	<polyline style="fill:none;stroke:#FFFFFF;stroke-miterlimit:10;" points="216.126,236.845 202.251,211.033 116.753,211.033 
		202.251,211.033 216.126,236.845 	"/>
</g>
</svg>
